<?xml version="1.0" encoding="utf-8"?>
<!-- Generator: Adobe Illustrator 27.5.0, SVG Export Plug-In . SVG Version: 6.00 Build 0)  -->
<svg version="1.1" xmlns="http://www.w3.org/2000/svg" xmlns:xlink="http://www.w3.org/1999/xlink" x="0px" y="0px"
	 viewBox="0 0 750 500" style="enable-background:new 0 0 750 500;" xml:space="preserve">
<g id="BACKGROUND">
	<rect style="fill:#FFFFFF;" width="750" height="500"/>
</g>
<g id="OBJECTS">
	<g>
		<defs>
			<rect id="SVGID_1_" width="750" height="500"/>
		</defs>
		<clipPath id="SVGID_00000165211526771959179770000010466467604158902704_">
			<use xlink:href="#SVGID_1_"  style="overflow:visible;"/>
		</clipPath>
		<g style="clip-path:url(#SVGID_00000165211526771959179770000010466467604158902704_);">
			<g>
				<path style="fill:#FFFFFF;" d="M580.909,460.883c0.66,0.6,1.404,0.903,2.216,0.903c0.155,0,0.312-0.011,0.472-0.033
					c2.906-0.401,5.865-4.501,7.37-6.909c1.915-3.064,4.575-6.74,5.783-8.384c-0.392,3.945-0.892,9.007-1.041,10.649
					c-0.148,1.628,0.19,2.944,0.976,3.805c0.677,0.741,1.673,1.133,2.882,1.133c1.177,0,2.26-0.889,3.148-2.576
					c0.53,1.047,1.502,1.862,2.672,2.106c1.57,0.326,3.133-0.305,4.088-1.577c0.025-0.033,0.047-0.068,0.071-0.102
					c1.727,1.942,4.753,2.198,6.989,1.033c2.565-1.337,3.977-4.161,4.359-6.929c0.217-1.572,0.146-3.152-0.043-4.72
					c0.021-0.014,0.042-0.029,0.062-0.048c2.264-2.047,4.201-4.454,5.713-7.106c0.529,7.654,1.357,15.286,2.481,22.876
					c1.193,8.054,2.722,16.058,4.583,23.985c1.049,4.468,2.204,8.91,3.461,13.324c0.028,0.098,0.077,0.171,0.139,0.223
					c0.066,0.136,0.197,0.239,0.395,0.239h121.884c-0.043-0.066-0.07-0.149-0.07-0.249v-0.671h-0.414v-88.983
					c0-0.152-0.06-0.264-0.15-0.338c-2.417-5.683-4.652-11.444-6.7-17.271c-2.062-5.866-3.934-11.799-5.613-17.786
					c-0.946-3.373-1.83-6.763-2.654-10.168c-0.024-0.101-0.072-0.176-0.133-0.229c-0.23-12.794-0.664-22.583-0.768-24.8
					c0.026-0.058,0.039-0.127,0.035-0.207c-0.44-7.918-2.963-15.686-7.248-22.359c-1.151-1.792-2.432-3.5-3.821-5.115
					c-0.216-0.476-0.437-0.949-0.665-1.419c-1.411-2.908-3.049-5.703-4.848-8.388c-1.741-2.598-3.607-5.152-5.676-7.5
					c-2.133-2.421-4.628-4.593-7.671-5.746c-0.001-0.001-0.002-0.003-0.003-0.004c-0.048-0.06-0.108-0.104-0.173-0.136
					c-0.24-0.49-0.786-0.692-1.371-0.736c-1.07-0.081-2.181,0.009-3.251,0.068c-2.187,0.12-4.364,0.373-6.533,0.676
					c-4.396,0.613-8.776,1.362-13.16,2.057l-7.494,1.189c-0.041,0.006-0.077,0.017-0.11,0.031l-1.313-2.853
					c4.17-4.785,7.136-11.895,8.012-19.529c0.144-0.449,1.078-3.533,1.168-7.91c0.017-0.01,0.034-0.02,0.05-0.032
					c2.409-1.74,3.261-4.721,3.703-7.523c0.527-3.347,0.511-6.839-0.855-9.995c-0.68-1.571-1.691-2.998-3.01-4.095
					c-0.046-0.038-0.095-0.066-0.144-0.084c-0.363-1.31-0.84-2.589-1.428-3.816c-0.733-1.527-1.646-2.952-2.708-4.27
					c-0.214-0.266-0.704-0.117-0.77,0.203c-0.253,1.231-0.505,2.462-0.757,3.692c-0.369-0.602-0.764-1.187-1.19-1.752
					c-1.941-2.573-4.468-4.526-7.026-6.446c-0.313-0.235-0.657,0.096-0.693,0.398c-0.216,1.818-0.199,3.639,0.028,5.451
					c-1.908-0.61-3.899-0.995-5.898-1.19c-3.23-0.315-6.49-0.151-9.702,0.274c-0.228,0.03-0.367,0.191-0.416,0.371
					c-3.093,1.118-5.939,2.838-8.378,5.022c0.717-2.592,1.063-5.276,1.026-7.966c-0.005-0.32-0.399-0.612-0.693-0.398
					c-3.342,2.441-6.171,5.519-8.308,9.061c-0.047-0.081-0.094-0.163-0.142-0.243c-0.176-0.293-0.622-0.304-0.795,0
					c-2.096,3.685-3,7.946-2.626,12.149c-0.607-1.169-1.254-2.313-1.906-3.431c-0.136-0.233-0.376-0.264-0.568-0.179
					c-0.192-0.007-0.391,0.085-0.476,0.311c-2.58,6.88-1.222,14.449,1.514,21.054c0.782,1.888,1.669,3.729,2.613,5.541
					c0.216,0.415,0.756,0.213,0.84-0.149c1.206-0.599,2.355-1.301,3.44-2.09c0.469,1.934,2.206,8.261,5.58,11.769
					c0.556,0.579,1.199,1.221,1.915,1.898c-0.027,0.1-0.02,0.213,0.038,0.329c2.541,5.103,5.022,10.236,7.443,15.397
					c-6.223,1.363-12.019,4.597-16.426,9.203c-0.323,0.338-0.626,0.733-1.01,1.005c-0.392,0.277-0.881,0.378-1.335,0.508
					c-1.083,0.312-2.167,0.624-3.251,0.936c-0.318,0.091-0.382,0.409-0.278,0.643c-1.77,0.693-3.08,2.036-4.165,3.561
					c-1.215,1.706-2.24,3.568-3.265,5.391c-2.141,3.811-4.066,7.772-5.397,11.945c-0.717,2.247-1.24,4.547-1.545,6.884
					c-0.075,0.101-0.112,0.23-0.096,0.361c-1.451,3.736-2.091,7.76-1.873,11.762c0.004,0.07,0.021,0.132,0.047,0.186
					c-0.022,0.09-0.02,0.186,0.012,0.281c0.014,0.042,0.912,2.674,2.523,6.147c-2.433,11.334-2.37,22.996-1.734,34.515
					c0.18,3.262,0.405,6.522,0.631,9.781c0.005,0.066,0.021,0.124,0.045,0.175c-2.558,1.734-4.345,3.023-5.026,3.666
					c-4.509,4.259-19.539,22.32-26.387,32.592c-2.032,3.047-3.982,5.621-5.548,7.689c-1.839,2.427-3.291,4.344-4.031,5.888
					C579.996,457.904,579.448,459.555,580.909,460.883z"/>
				<g>
					<path style="fill:none;stroke:#161616;stroke-width:1.0129;stroke-miterlimit:10;" d="M644.034,273.593
						c0,0,1.705,8.06,5.58,12.09c3.875,4.03,11.005,10.23,18.754,11.315c7.75,1.085,17.205-9.765,18.91-24.799
						c0,0,4.34-13.02-3.72-24.489"/>
					<path style="fill:#161616;" d="M683.966,246.826c-0.066-0.582-0.987-0.589-0.921,0c0.323,2.862-2.462,4.611-4.862,5.254
						c-2.626,0.704-5.47,0.727-7.88,2.116c-2.31,1.331-3.195,3.72-4.258,6.015c-0.544,1.175-1.18,2.285-2.126,3.185
						c-0.955,0.909-2.125,1.59-3.349,2.069c-3.179,1.245-6.74,1.336-10.003,0.368c-0.569-0.169-0.813,0.719-0.245,0.888
						c3.008,0.893,6.259,0.924,9.275,0.045c2.637-0.768,5.08-2.257,6.506-4.661c1.321-2.226,1.859-5.12,4.056-6.721
						c2.383-1.737,5.525-1.679,8.268-2.415c1.526-0.41,3.009-1.08,4.098-2.257C683.497,249.662,684.13,248.276,683.966,246.826z"/>
					<path style="fill:#161616;" d="M691.842,246.846c-0.68-1.571-1.691-2.998-3.01-4.095c-0.046-0.038-0.095-0.066-0.144-0.084
						c-0.363-1.31-0.84-2.589-1.428-3.816c-0.733-1.527-1.646-2.952-2.708-4.27c-0.214-0.266-0.704-0.117-0.77,0.203
						c-0.253,1.231-0.505,2.462-0.757,3.692c-0.369-0.602-0.764-1.187-1.19-1.752c-1.941-2.573-4.468-4.526-7.026-6.446
						c-0.313-0.235-0.657,0.096-0.693,0.398c-0.216,1.818-0.199,3.639,0.028,5.451c-1.908-0.61-3.899-0.995-5.898-1.19
						c-3.23-0.315-6.49-0.151-9.702,0.274c-0.228,0.03-0.367,0.191-0.416,0.371c-3.093,1.118-5.939,2.838-8.378,5.022
						c0.717-2.592,1.063-5.276,1.026-7.966c-0.005-0.32-0.399-0.612-0.693-0.398c-3.342,2.441-6.171,5.519-8.308,9.061
						c-0.047-0.081-0.094-0.163-0.142-0.243c-0.176-0.293-0.622-0.304-0.795,0c-2.096,3.685-3,7.946-2.626,12.149
						c-0.607-1.169-1.254-2.313-1.906-3.431c-0.136-0.233-0.376-0.264-0.568-0.179c-0.192-0.007-0.391,0.085-0.476,0.311
						c-2.58,6.88-1.222,14.449,1.514,21.054c0.782,1.888,1.669,3.729,2.613,5.541c0.216,0.415,0.756,0.213,0.84-0.149
						c5.898-2.928,10.456-8.292,12.601-14.498c0.052,0.089,0.14,0.16,0.272,0.191c2.44,0.585,5.003,0.281,7.28-0.756
						c1.129-0.514,2.177-1.222,3.074-2.08c1.019-0.975,1.723-2.155,2.451-3.351c0.741-1.217,1.617-2.283,2.824-3.063
						c1.129-0.73,2.432-1.201,3.775-1.31c1.497-0.121,2.996,0.062,4.454-0.391c1.207-0.375,2.321-1.052,3.209-1.951
						c1.879-1.901,2.527-4.664,1.889-7.191c1.324,1.363,2.432,2.937,3.247,4.7c1.095,2.369,1.559,5.041,1.136,7.628
						c-0.095,0.58,0.792,0.829,0.888,0.245c0.519-3.17-0.159-6.32-1.618-9.097c0.145-0.095,0.235-0.264,0.169-0.482
						c-0.554-1.816-1.262-3.595-2.161-5.269c0.253-1.232,0.506-2.465,0.758-3.697c3.195,4.37,4.604,9.955,4.017,15.328
						c-0.177,1.624-0.558,3.223-1.106,4.761c-0.2,0.559,0.69,0.8,0.888,0.245c1.378-3.862,1.61-8.071,0.794-12.072
						c1.671,1.799,2.619,4.182,2.917,6.62c0.199,1.625,0.144,3.276-0.057,4.898c-0.176,1.417-0.441,2.844-0.915,4.194
						c-0.49,1.396-1.265,2.734-2.483,3.614c-0.476,0.344-0.017,1.143,0.465,0.795c2.409-1.74,3.261-4.721,3.703-7.523
						C693.224,253.494,693.208,250.001,691.842,246.846z M659.028,236.069c5.185-0.642,10.58-0.595,15.553,1.157
						c1.629,0.574,3.177,1.353,4.593,2.315c-0.153,2.149-0.812,4.469-3.069,5.227c-2.055,0.69-4.318,0.229-6.435,0.533
						c-1.029,0.147-2.023,0.478-2.876,1.083c-0.832,0.59-1.5,1.356-2.092,2.181c-1.293,1.801-2.222,3.838-3.904,5.335
						c-1.859,1.654-4.295,2.593-6.774,2.653c0.042-0.379,0.075-0.76,0.1-1.141c0.018-0.283-0.311-0.543-0.583-0.444
						c-0.357,0.13-0.71,0.271-1.058,0.421c1.469-2.674,2.511-5.572,3.073-8.575c0.006-0.033,0.008-0.068,0.007-0.103
						c0.234-0.379,0.428-0.784,0.608-1.194c0.444-1.009,0.848-2.035,1.21-3.076C658.102,240.365,658.649,238.233,659.028,236.069z
						 M650.733,249.463c1.024-0.66,2.095-1.244,3.199-1.758c0.101,0.133,0.271,0.224,0.448,0.209
						c-0.684,2.877-1.812,5.626-3.357,8.157c-0.003,0.006-0.006,0.011-0.009,0.016c-3.671,1.926-6.744,4.918-8.854,8.486
						c0.007-0.037,0.01-0.077,0.008-0.12C641.8,258.219,645.667,252.728,650.733,249.463z M654.688,238.165
						c1.062-0.603,2.167-1.122,3.306-1.556c-0.347,1.782-0.808,3.54-1.39,5.26c-0.337,0.996-0.71,1.98-1.126,2.945
						c-0.232,0.538-0.47,1.079-0.795,1.559c-3.905,1.644-7.541,4.134-10.061,7.49c0.122-1.563,0.073-3.131-0.141-4.676
						C646.648,244.567,650.25,240.686,654.688,238.165z M642.335,242.156c1.933-3.314,4.489-6.243,7.517-8.596
						c-0.046,2.394-0.402,4.764-1.065,7.071c-0.084,0.291,0.107,0.497,0.335,0.553c-1.194,1.143-2.281,2.4-3.239,3.755
						c-0.615,0.87-1.17,1.779-1.667,2.721c-0.398-1.882-1.044-3.712-1.932-5.432C642.302,242.206,642.319,242.183,642.335,242.156z
						 M641.245,242.237c1.161,2.128,1.938,4.452,2.301,6.84c-0.012,0.088,0.003,0.172,0.036,0.247
						c0.278,1.994,0.268,4.029-0.051,6.028c-0.008,0.052-0.008,0.102-0.002,0.149c-0.661,1.115-1.206,2.311-1.607,3.591
						c-0.256,0.82-0.444,1.661-0.561,2.511c-0.444-2.257-1.254-4.446-2.241-6.559c0.132-0.1,0.22-0.263,0.186-0.467
						C638.599,250.382,639.301,246.011,641.245,242.237z M642.029,264.797c-0.101,0.175-0.2,0.351-0.296,0.528
						c0-0.144-0.002-0.286-0.005-0.429C641.838,264.897,641.947,264.864,642.029,264.797z M639.144,273.973
						c-2.728-5.623-4.762-11.703-4.271-18.024c0.134-1.721,0.471-3.418,1.015-5.055c2.843,4.941,5.452,10.349,4.829,16.201
						c-0.011,0.102,0.008,0.186,0.047,0.252c-0.322,0.767-0.603,1.552-0.836,2.352C639.52,271.092,639.257,272.526,639.144,273.973z
						 M644.426,272.517c-1.357,1.14-2.845,2.115-4.424,2.921c0.049-6.62,3.509-13.049,8.842-16.933
						c1.332-0.971,2.776-1.784,4.303-2.403c-0.023,0.239-0.05,0.478-0.081,0.716c-0.027,0.072-0.038,0.151-0.031,0.23
						C652.217,263.034,649.051,268.63,644.426,272.517z M679.612,248.396c-0.842,0.885-1.916,1.542-3.094,1.871
						c-1.411,0.394-2.874,0.162-4.311,0.329c-2.456,0.285-4.741,1.562-6.244,3.53c-0.836,1.094-1.401,2.369-2.256,3.449
						c-0.737,0.931-1.648,1.717-2.664,2.329c-2.29,1.381-5.085,1.881-7.695,1.256c-0.112-0.027-0.211-0.015-0.294,0.023
						c0.009-0.027,0.018-0.054,0.026-0.082c0.368-1.186,0.643-2.398,0.825-3.625c2.287-0.022,4.558-0.745,6.437-2.053
						c0.985-0.686,1.844-1.513,2.57-2.467c0.684-0.899,1.251-1.878,1.854-2.83c0.589-0.93,1.217-1.849,2.045-2.585
						c0.844-0.75,1.864-1.163,2.973-1.331c2.223-0.338,4.592,0.192,6.742-0.615c2.36-0.886,3.244-3.124,3.511-5.431
						c0.231,0.177,0.459,0.359,0.681,0.546c-0.019,0.092-0.01,0.194,0.039,0.299C681.901,243.434,681.469,246.444,679.612,248.396z
						 M684.299,243.179c-0.502-0.683-1.051-1.333-1.642-1.941c-2.132-2.196-4.733-3.749-7.548-4.781
						c-0.001-0.005-0.001-0.01-0.001-0.015c-0.243-1.627-0.289-3.274-0.156-4.911c2.259,1.709,4.48,3.493,6.181,5.783
						C682.467,239.109,683.502,241.097,684.299,243.179z"/>
					<path style="fill:#161616;" d="M676.732,261.953c0.334-0.491-0.463-0.952-0.795-0.465c-1.625,2.388-2.6,5.164-2.904,8.032
						c-0.155,1.458-0.119,2.927,0.088,4.378c0.101,0.704,0.244,1.401,0.434,2.086c0.193,0.697,0.526,1.374,0.665,2.082
						c0.082,0.42,0.001,0.741-0.412,0.919c-0.407,0.176-0.869,0.257-1.295,0.372c-0.966,0.262-1.932,0.524-2.898,0.785
						c-0.571,0.155-0.329,1.043,0.245,0.888c0.881-0.239,1.761-0.477,2.642-0.716c0.692-0.187,1.582-0.29,2.147-0.768
						c0.538-0.456,0.596-1.145,0.444-1.795c-0.17-0.731-0.495-1.426-0.688-2.154c-0.783-2.934-0.718-6.072,0.129-8.984
						C675.015,264.951,675.758,263.384,676.732,261.953z"/>
					<path style="fill:#161616;" d="M675.275,286.27c-0.005-0.043-0.016-0.082-0.03-0.119c0.019-0.05,0.03-0.106,0.03-0.169
						c0.007-1.813-1.928-2.73-3.517-2.5c-0.995,0.144-1.904,0.615-2.788,1.07c-1.061,0.546-2.121,1.093-3.182,1.64
						c-0.191,0.099-0.251,0.266-0.226,0.426c-0.161,0.163-0.218,0.429-0.008,0.637c1.394,1.383,3.368,2.096,5.325,1.991
						c0.952-0.051,1.889-0.288,2.74-0.721C674.465,288.097,675.408,287.326,675.275,286.27z M672.79,287.9
						c-0.729,0.298-1.516,0.439-2.302,0.436c-1.463-0.005-2.896-0.515-3.998-1.471c0.737-0.38,1.474-0.76,2.211-1.14
						c0.769-0.396,1.536-0.842,2.357-1.124c0.719-0.246,1.515-0.378,2.233-0.056c0.585,0.262,1.065,0.768,1.062,1.436
						c0,0.039,0.004,0.075,0.011,0.109c-0.015,0.052-0.02,0.111-0.012,0.178C674.461,287.12,673.454,287.629,672.79,287.9z"/>
					<path style="fill:#161616;" d="M685.526,304.358l-5.765-12.528c-0.247-0.538-1.041-0.07-0.795,0.465l5.765,12.528
						C684.979,305.361,685.773,304.893,685.526,304.358z"/>
					
						<path style="fill:none;stroke:#161616;stroke-width:1.0129;stroke-linecap:round;stroke-linejoin:round;stroke-miterlimit:10;" d="
						M596.986,445.288c0,0-3.87,5.159-6.449,9.287c-2.58,4.128-6.449,8.513-9.287,5.933c-2.838-2.58,2.58-6.965,9.287-17.026
						c6.707-10.061,21.67-28.119,26.313-32.505c4.643-4.386,62.485-39.873,62.485-39.873s14.208-48.994,16.658-53.648
						c2.45-4.654,9.799-10.534,17.393-9.799c7.594,0.735,15.188,9.799,13.718,24.742c-1.47,14.943-26.946,61.487-29.396,66.876
						c0,0-3.185,5.879-13.517,9.82c-8.881,3.387-54.423,21.249-54.423,21.249"/>
					
						<path style="fill:none;stroke:#161616;stroke-width:1.0129;stroke-linecap:round;stroke-linejoin:round;stroke-miterlimit:10;" d="
						M597.76,441.419c0,0-1.29,12.899-1.548,15.736c-0.258,2.838,1.032,4.385,3.354,4.385c2.322,0,3.87-4.385,4.385-7.997
						c0.516-3.612,0.774-11.351,0.774-11.351"/>
					
						<path style="fill:none;stroke:#161616;stroke-width:1.0129;stroke-linecap:round;stroke-linejoin:round;stroke-miterlimit:10;" d="
						M636.711,316.477c0,0,9.554,16.168,22.047,12.493c12.493-3.675,54.016-37.113,54.016-37.113"/>
					
						<path style="fill:none;stroke:#161616;stroke-width:1.0129;stroke-linecap:round;stroke-linejoin:round;stroke-miterlimit:10;" d="
						M622.38,344.036c0,0,6.247,24.619,17.638,27.926c11.391,3.307,49.239-34.908,49.239-34.908"/>
					
						<path style="fill:none;stroke:#161616;stroke-width:1.0129;stroke-linecap:round;stroke-linejoin:round;stroke-miterlimit:10;" d="
						M620.543,356.162c0,0,9.186,27.191,22.415,22.782c13.228-4.409,43.359-30.131,43.359-30.131"/>
					
						<path style="fill:none;stroke:#161616;stroke-width:1.0129;stroke-linecap:round;stroke-linejoin:round;stroke-miterlimit:10;" d="
						M663.168,417.526c0,0,37.113,24.619,52.546,20.945c15.433-3.675,18.74-75.695,19.475-87.086s0.735-19.842,0.735-19.842"/>
					
						<path style="fill:none;stroke:#161616;stroke-width:1.0129;stroke-linecap:round;stroke-linejoin:round;stroke-miterlimit:10;" d="
						M656.186,420.466c0,0,42.992,29.029,56.588,30.498c13.596,1.47,28.661-11.391,30.131-41.889
						c1.47-30.499-0.367-67.244-0.367-67.244"/>
					
						<path style="fill:none;stroke:#161616;stroke-width:1.0129;stroke-linecap:round;stroke-linejoin:round;stroke-miterlimit:10;" d="
						M641.12,425.978c0,0,14.698,55.485,38.583,74.225"/>
					
						<path style="fill:none;stroke:#161616;stroke-width:1.0129;stroke-linecap:round;stroke-linejoin:round;stroke-miterlimit:10;" d="
						M635.609,427.815c0,0,4.409,48.136,22.782,69.816"/>
					<path style="fill:#161616;" d="M663.793,312.644c-2.944-6.514-5.983-12.985-9.116-19.41c-0.886-1.816-1.779-3.629-2.68-5.438
						c-0.264-0.53-1.059-0.065-0.795,0.465c2.541,5.103,5.022,10.236,7.443,15.397c-6.223,1.363-12.019,4.598-16.426,9.203
						c-0.323,0.338-0.626,0.733-1.01,1.005c-0.392,0.277-0.881,0.378-1.335,0.508c-1.083,0.312-2.167,0.624-3.251,0.936
						c-0.318,0.091-0.382,0.409-0.278,0.643c-1.77,0.693-3.08,2.036-4.165,3.561c-1.215,1.706-2.24,3.568-3.265,5.391
						c-2.141,3.811-4.066,7.772-5.397,11.945c-0.734,2.3-1.265,4.656-1.567,7.051c-1.504,3.79-2.169,7.885-1.948,11.957
						c0.032,0.589,0.953,0.593,0.921,0c-0.213-3.913,0.411-7.815,1.822-11.468c0.049-0.064,0.083-0.144,0.095-0.239
						c0-0.004,0.001-0.009,0.002-0.013c0.001-0.002,0.001-0.003,0.002-0.005c0.033-0.084,0.041-0.161,0.029-0.229
						c0.522-4.12,1.803-8.118,3.48-11.907c1.675-3.783,3.694-7.456,5.908-10.95c1.082-1.707,2.398-3.456,4.345-4.213
						c0.289-0.112,0.358-0.413,0.279-0.641c0.935-0.269,1.87-0.538,2.805-0.807c0.822-0.237,1.658-0.413,2.32-0.989
						c0.607-0.528,1.123-1.172,1.701-1.732c0.591-0.572,1.204-1.12,1.838-1.644c2.528-2.089,5.404-3.786,8.454-4.991
						c1.635-0.646,3.322-1.15,5.04-1.516c0.48,1.026,0.958,2.053,1.433,3.082c0.847,1.835,1.687,3.673,2.519,5.514
						C663.242,313.648,664.036,313.18,663.793,312.644z"/>
					<path style="fill:#161616;" d="M743.1,342.07c-0.44-7.918-2.963-15.686-7.248-22.359c-1.151-1.792-2.432-3.5-3.821-5.115
						c-0.216-0.476-0.437-0.949-0.665-1.419c-1.411-2.908-3.049-5.703-4.848-8.388c-1.741-2.598-3.607-5.152-5.676-7.5
						c-2.165-2.456-4.702-4.659-7.807-5.798c-0.215-0.555-0.791-0.778-1.41-0.825c-1.07-0.081-2.181,0.009-3.251,0.068
						c-2.187,0.12-4.364,0.373-6.533,0.676c-4.396,0.613-8.776,1.362-13.16,2.057l-7.494,1.189c-0.584,0.093-0.336,0.98,0.245,0.888
						c4.093-0.65,8.187-1.299,12.28-1.949c4.062-0.645,8.123-1.366,12.22-1.755c1.144-0.109,2.29-0.189,3.438-0.231
						c0.574-0.021,1.149-0.032,1.723-0.032c0.136,0,0.862-0.043,1.052,0.134c-0.042,0.214,0.043,0.459,0.307,0.548
						c2.837,0.957,5.177,2.893,7.183,5.065c2.062,2.232,3.883,4.707,5.6,7.211c2.196,3.202,4.177,6.571,5.807,10.099
						c-0.013,0.117,0.019,0.243,0.117,0.354c0.032,0.037,0.064,0.074,0.096,0.112c0.889,1.969,1.667,3.987,2.311,6.052
						c1.04,3.336,1.719,6.78,1.944,10.269c0.038,0.588,0.959,0.593,0.921,0c-0.305-4.73-1.421-9.346-3.113-13.754
						c3.933,5.288,6.682,11.439,8.017,17.898c0.443,2.144,0.723,4.317,0.845,6.503C742.212,342.66,743.133,342.664,743.1,342.07z"/>
					<path style="fill:#161616;" d="M623.495,362.615c0.125-0.578-0.763-0.825-0.888-0.245c-2.455,11.365-2.393,23.063-1.755,34.616
						c0.18,3.262,0.405,6.522,0.631,9.781c0.041,0.588,0.962,0.592,0.921,0c-0.796-11.462-1.592-23.007-0.427-34.473
						C622.308,369.043,622.805,365.81,623.495,362.615z"/>
					<path style="fill:#161616;" d="M732.444,388.476c-3.294-4.973-6.41-10.063-9.335-15.262c-0.689-1.224-1.513-2.474-1.8-3.868
						c-0.312-1.509,0.081-3.138,0.289-4.638c0.423-3.047,0.845-6.094,1.268-9.142c0.477-3.439,0.954-6.879,1.431-10.318
						c0.08-0.58-0.807-0.83-0.888-0.245c-0.866,6.245-1.732,12.49-2.598,18.736c-0.206,1.485-0.528,3.006-0.525,4.509
						c0.003,1.48,0.562,2.779,1.262,4.055c0.753,1.372,1.525,2.735,2.312,4.089c-0.088,0.074-0.143,0.187-0.133,0.342
						c0.549,8.397-0.221,16.894-2.369,25.035c-1.605,6.084-4.613,12.887-11.181,14.813c-4.174,1.224-8.644,0.414-12.822-0.365
						c-0.579-0.108-0.828,0.779-0.245,0.888c3.84,0.716,7.814,1.415,11.712,0.736c3.48-0.606,6.472-2.502,8.637-5.272
						c2.053-2.626,3.369-5.755,4.327-8.926c1.194-3.95,1.958-8.052,2.456-12.145c0.551-4.527,0.705-9.098,0.47-13.652
						c0.461,0.781,0.927,1.56,1.396,2.337c1.786,2.958,3.635,5.877,5.543,8.757C731.975,389.433,732.773,388.972,732.444,388.476z"
						/>
					<path style="fill:#161616;" d="M759.498,502.526v-0.671h-0.414v-88.983c0-0.152-0.06-0.264-0.15-0.338
						c-2.417-5.683-4.652-11.444-6.7-17.271c-2.062-5.866-3.934-11.799-5.613-17.786c-0.946-3.373-1.83-6.763-2.654-10.168
						c-0.139-0.576-1.028-0.332-0.888,0.245c1.469,6.072,3.132,12.097,4.99,18.062c1.866,5.993,3.928,11.924,6.18,17.783
						c1.247,3.243,2.554,6.463,3.915,9.66v88.798H637.978c-2.196-7.733-4.076-15.554-5.629-23.442
						c-1.57-7.977-2.809-16.02-3.707-24.101c-0.504-4.532-0.899-9.075-1.191-13.625c-0.002-0.031-0.007-0.06-0.014-0.088
						c0.033-0.066,0.067-0.132,0.099-0.198c1.737-3.602,2.866-7.648,2.446-11.671c-0.249-2.388-0.928-4.694-1.615-6.986
						c-0.17-0.566-1.059-0.325-0.888,0.245c0.584,1.946,1.172,3.903,1.477,5.917c0.311,2.051,0.238,4.122-0.187,6.151
						c-0.751,3.587-2.337,7.005-4.454,9.986c-1.052,1.482-2.256,2.85-3.576,4.097c0,0,0,0,0,0c-0.16-0.768-0.571-1.482-1.166-1.997
						c-0.279-0.242-0.588-0.442-0.926-0.59c-0.394-0.172-0.846-0.207-1.221-0.414c-0.069-0.038-0.137-0.057-0.201-0.06
						c0.069-0.857,0.138-1.715,0.206-2.572c0.047-0.591-0.874-0.588-0.921,0c-0.339,4.228-0.679,8.456-1.018,12.684
						c-0.048,0.591,0.874,0.588,0.921,0c0.245-3.055,0.49-6.109,0.735-9.164c0.552,0.246,1.155,0.296,1.66,0.676
						c0.528,0.398,0.872,0.965,1.023,1.601c-0.013,0.058-0.017,0.12-0.007,0.187c0.417,2.804,0.551,5.856-0.759,8.459
						c-1.076,2.138-3.073,3.826-5.564,3.763c-1.271-0.032-2.482-0.527-3.327-1.489c-0.052-0.059-0.108-0.098-0.165-0.122
						c0.577-1.229,0.696-2.644,0.774-3.991c0.116-2.006,0.226-4.013,0.339-6.02c0.13-2.315,0.26-4.63,0.391-6.944
						c0.033-0.592-0.888-0.59-0.921,0c-0.199,3.533-0.398,7.066-0.596,10.599c-0.145,2.578,0.193,7.378-3.266,7.96
						c-1.574,0.265-3.04-0.772-3.435-2.289c-0.15-0.573-1.038-0.33-0.888,0.245c0.371,1.422,1.523,2.611,2.98,2.914
						c1.57,0.326,3.133-0.305,4.088-1.577c0.025-0.033,0.047-0.068,0.071-0.102c1.727,1.942,4.753,2.198,6.989,1.033
						c2.565-1.337,3.977-4.161,4.359-6.929c0.217-1.572,0.146-3.152-0.043-4.72c0.021-0.014,0.042-0.029,0.062-0.048
						c2.264-2.047,4.201-4.454,5.713-7.106c0.529,7.654,1.357,15.286,2.481,22.876c1.193,8.054,2.722,16.058,4.583,23.985
						c1.049,4.468,2.204,8.91,3.461,13.324c0.028,0.098,0.077,0.171,0.139,0.223c0.066,0.136,0.197,0.239,0.395,0.239h121.884
						C759.525,502.709,759.498,502.626,759.498,502.526z"/>
				</g>
			</g>
			<g>
				<path style="fill:#FFFFFF;" d="M209.689,230.439c-0.008-0.945-0.098-3.198-0.7-6.035c-1.313-6.19-4.02-10.174-6.06-12.426
					c-1.819-2.009-2.783-4.216-2.946-6.748c-0.174-2.698,0.601-5.826,2.302-9.296c1.11-2.263,1.358-4,0.781-5.467
					c-0.529-1.344-1.661-2.304-2.972-3.415c-1.542-1.307-3.29-2.788-4.613-5.334c-1.244-2.395-2.505-4.126-3.618-5.654
					c-2.18-2.993-3.903-5.357-4.489-11.097c-0.871-8.531,1.818-12.294,1.844-12.329l0.357-0.476l-0.169-0.115
					c3.238-4.402,4.18-10.076,2.514-15.301c-0.066-0.206-0.139-0.421-0.225-0.657c-0.062-0.243-0.122-0.463-0.184-0.669
					c-1.566-5.257-5.541-9.415-10.697-11.229l0.072-0.186l-0.557-0.195c-0.043-0.015-4.384-1.611-8.469-9.151
					c-2.749-5.073-2.657-7.996-2.54-11.698c0.059-1.889,0.127-4.03-0.194-6.71c-0.341-2.848,0.269-5.057,0.808-7.005
					c0.458-1.656,0.853-3.087,0.533-4.495c-0.35-1.537-1.533-2.833-3.724-4.077c-3.36-1.909-5.762-4.057-7.137-6.385
					c-1.291-2.185-1.738-4.551-1.366-7.236c0.755-5.452-0.666-10.449-1.991-13.681c-1.101-2.683-2.295-4.596-2.821-5.381
					c5.234-5.621,7.024-13.595,4.67-20.927c-1.74-5.421-5.475-9.824-10.515-12.4c-5.045-2.578-10.809-3.022-16.228-1.257
					c-6.013,1.961-10.792,6.459-13.124,12.348c-1.561,1.974-4.428,5.385-6.487,6.58c-1.263,0.734-4.287,0.751-7.488,0.77
					c-4.454,0.026-9.502,0.056-12.971,1.793c-5.387,2.697-18.848,8.704-26.075,10.05c-2.092,0.39-4.3,0.372-6.564-0.053
					c-3.836-0.72-7.837,0.449-10.702,3.127c-4.635,4.333-11.05,5.743-17.841,7.236c-3.931,0.864-7.995,1.757-11.738,3.27
					c-5.192,2.098-8.781,4.335-11.664,6.133C2.985,66.98,0.529,68.511-2.57,67.93c-5.566-1.044-7.776-2.59-7.795-2.604l-0.954-0.693
					l0.024,0.531c-5.142-3.261-11.363-4.157-17.244-2.447c-5.476,1.589-9.985,5.206-12.702,10.178
					c-2.714,4.967-3.32,10.709-1.705,16.168c2.184,7.385,8.155,12.965,15.645,14.663c0.008,0.945,0.098,3.198,0.7,6.035
					c1.313,6.19,4.02,10.174,6.06,12.426c1.819,2.009,2.783,4.216,2.946,6.748c0.174,2.698-0.6,5.826-2.302,9.296
					c-1.11,2.262-1.358,4-0.781,5.467c0.529,1.344,1.661,2.304,2.972,3.415c1.542,1.307,3.291,2.788,4.613,5.334
					c1.244,2.395,2.505,4.126,3.618,5.654c2.181,2.993,3.903,5.357,4.489,11.097c0.871,8.531-1.818,12.294-1.843,12.329
					l-0.357,0.476l0.169,0.115c-3.238,4.402-4.18,10.076-2.514,15.301c0.065,0.204,0.139,0.419,0.225,0.657
					c0.062,0.245,0.123,0.464,0.184,0.669c1.566,5.257,5.541,9.414,10.696,11.228l-0.072,0.186l0.557,0.195
					c0.043,0.015,4.384,1.611,8.469,9.151c2.748,5.073,2.657,7.996,2.54,11.697c-0.059,1.889-0.127,4.03,0.194,6.71
					c0.341,2.848-0.269,5.057-0.808,7.005c-0.458,1.656-0.853,3.087-0.533,4.495c0.35,1.537,1.533,2.833,3.724,4.077
					c3.36,1.909,5.762,4.057,7.137,6.385c1.291,2.185,1.738,4.551,1.366,7.236c-0.755,5.452,0.666,10.449,1.991,13.681
					c1.101,2.684,2.295,4.596,2.821,5.381c-5.234,5.621-7.024,13.594-4.67,20.927c1.74,5.421,5.475,9.824,10.515,12.4
					c4.94,2.525,10.568,3.005,15.889,1.364c0.113-0.035,0.226-0.071,0.339-0.108c6.012-1.961,10.792-6.459,13.124-12.348
					c1.561-1.974,4.428-5.385,6.487-6.58c1.263-0.734,4.287-0.751,7.489-0.77c4.454-0.026,9.502-0.056,12.971-1.793
					c5.386-2.697,18.847-8.704,26.075-10.05c2.092-0.39,4.3-0.372,6.564,0.053c3.836,0.72,7.837-0.449,10.702-3.127
					c4.635-4.333,11.05-5.743,17.841-7.236c3.93-0.864,7.995-1.757,11.738-3.27c5.192-2.098,8.781-4.335,11.664-6.133
					c3.717-2.317,6.172-3.848,9.272-3.266c5.566,1.044,7.775,2.59,7.795,2.604l0.954,0.693L193.683,269
					c5.142,3.261,11.363,4.157,17.244,2.447c0.114-0.033,0.227-0.067,0.34-0.102c5.321-1.641,9.701-5.208,12.362-10.076
					c2.714-4.967,3.32-10.709,1.705-16.168C223.149,237.716,217.179,232.135,209.689,230.439z"/>
				<g>
					<path style="fill:none;stroke:#161616;stroke-width:1.1365;stroke-miterlimit:10;" d="M209.117,230.897
						c0,0,0.38-10.822-6.609-18.538c-3.659-4.04-4.343-9.316-0.733-16.675c3.609-7.359-3.179-6.736-6.798-13.703
						c-3.618-6.967-7.259-8.049-8.168-16.955c-0.909-8.905,1.954-12.728,1.954-12.728l-0.173-0.118
						c3.288-4.155,4.524-9.819,2.789-15.261c-0.071-0.223-0.148-0.444-0.228-0.662c-0.057-0.225-0.118-0.45-0.185-0.675
						c-1.631-5.474-5.842-9.459-10.899-11.04l0.077-0.195c0,0-4.518-1.546-8.783-9.417c-4.264-7.871-1.865-10.815-2.8-18.61
						c-0.934-7.795,5.027-11.103-2.1-15.152c-7.127-4.048-9.534-8.793-8.786-14.192c1.429-10.312-4.979-19.04-4.979-19.04
						c5.139-5.284,7.278-13.164,4.859-20.697c-3.505-10.916-15.126-16.845-26.025-13.29c-6.083,1.984-10.63,6.545-12.802,12.094
						c-1.662,2.108-4.561,5.544-6.699,6.785c-3.172,1.841-14.51-0.415-20.49,2.579c-5.98,2.995-19.153,8.783-26.225,10.101
						c-2.455,0.458-4.782,0.321-6.773-0.053c-3.685-0.692-7.47,0.424-10.209,2.984c-7.53,7.039-19.737,6.57-29.753,10.618
						C6.557,63.915,3.125,69.576-2.675,68.488C-8.476,67.4-10.7,65.785-10.7,65.785s0.007,0.168,0.022,0.478
						c-4.964-3.527-11.428-4.826-17.703-3.001c-11.009,3.201-17.272,14.646-14.021,25.639c2.244,7.587,8.449,12.894,15.672,14.366
						c0,0-0.379,10.822,6.609,18.538c3.659,4.04,4.343,9.316,0.733,16.675c-3.609,7.359,3.179,6.736,6.798,13.703
						c3.618,6.967,7.259,8.049,8.168,16.955c0.909,8.905-1.954,12.728-1.954,12.728l0.173,0.118
						c-3.289,4.155-4.524,9.819-2.789,15.261c0.071,0.223,0.148,0.444,0.227,0.662c0.057,0.225,0.118,0.45,0.185,0.675
						c1.631,5.474,5.842,9.459,10.899,11.04l-0.077,0.195c0,0,4.518,1.546,8.783,9.417c4.264,7.871,1.865,10.815,2.8,18.61
						c0.934,7.795-5.027,11.103,2.1,15.152c7.127,4.049,9.534,8.793,8.786,14.192c-1.429,10.312,4.979,19.04,4.979,19.04
						c-5.139,5.284-7.278,13.164-4.859,20.697c3.505,10.916,15.126,16.845,26.025,13.29c6.083-1.984,10.63-6.545,12.802-12.094
						c1.662-2.108,4.561-5.544,6.699-6.785c3.172-1.841,14.51,0.415,20.49-2.579c5.98-2.995,19.153-8.783,26.225-10.101
						c2.455-0.458,4.782-0.321,6.773,0.053c3.685,0.691,7.47-0.423,10.209-2.984c7.53-7.039,19.737-6.57,29.754-10.618
						c12.021-4.858,15.453-10.518,21.254-9.431c5.801,1.088,8.025,2.703,8.025,2.703s-0.007-0.168-0.022-0.478
						c4.963,3.527,11.428,4.826,17.703,3.001c11.009-3.201,17.272-14.645,14.021-25.639
						C222.545,237.675,216.34,232.368,209.117,230.897z"/>
					
						<rect x="17.386" y="62.262" transform="matrix(0.9556 -0.2947 0.2947 0.9556 -44.5844 34.0922)" style="fill:none;stroke:#161616;stroke-width:1.1365;stroke-miterlimit:10;" width="146.89" height="205.444"/>
					
						<rect x="21.587" y="67.421" transform="matrix(0.9556 -0.2947 0.2947 0.9556 -44.5636 34.0822)" style="fill:none;stroke:#161616;stroke-width:1.1365;stroke-miterlimit:10;" width="138.443" height="194.979"/>
				</g>
			</g>
			<g>
				<path style="fill:#FFFFFF;" d="M178.324,122.497c-0.534,0.667-0.995,1.394-1.409,2.141c-0.893,1.613-1.62,3.334-2.316,5.039
					c-0.241,0.59-0.468,1.186-0.679,1.787c-0.325-0.706-0.838-1.316-1.532-1.714c-0.956-0.548-2.12-0.573-3.096-0.106
					c-0.008-0.028-0.02-0.057-0.035-0.087c-0.395-0.781-0.791-1.562-1.186-2.342c-0.302-0.596-0.572-1.299-1.086-1.752
					c-1.221-1.077-2.438,0.222-3.005,1.292c-1.339,2.528-1.287,5.568-0.631,8.284c0.791,3.275,2.375,6.295,3.523,9.448
					c1.163,3.193,2.085,6.469,2.903,9.766c0.453,1.828,0.925,3.666,1.249,5.523c0.303,1.738,0.436,3.554-0.083,5.264
					c-3.726,3.116-13.703,11.836-24.409,24.365c2.037-2.738,3.921-5.59,5.637-8.542c1.43-2.46,2.74-5.006,3.669-7.701
					c0.967-2.806,1.367-5.713,1.762-8.642c0.473-3.509,0.947-7.019,1.42-10.528c0.049-0.363-0.294-0.649-0.642-0.523
					c-5.611,2.031-10.05,6.361-13.142,11.372c-0.822,1.332-1.585,2.721-2.177,4.171c-0.655,1.603-0.967,3.236-0.986,4.966
					c-0.02,1.828,0.079,3.657,0.065,5.486c-0.015,1.846-0.082,3.691-0.199,5.533c-0.252,3.962-0.738,7.907-1.445,11.813
					c-0.397,0.51-0.79,1.021-1.179,1.533c0.023-0.735-0.094-1.482-0.315-2.185c0.123-0.056,0.226-0.162,0.267-0.326
					c0.913-3.588,0.518-7.318-0.03-10.93c-0.274-1.81-0.502-3.664-1.098-5.403c-0.591-1.722-1.663-3.171-2.762-4.598
					c-1.282-1.666-2.452-3.397-3.466-5.239c-0.187-0.34-0.669-0.194-0.818,0.083c-2.036,3.777-3.484,8.367-1.738,12.535
					c0.876,2.091,2.305,3.941,3.563,5.811c1.363,2.026,2.794,4.022,4.08,6.098c1.167,1.883,2.16,4.555,0.504,6.476
					c-0.07,0.081-0.105,0.167-0.113,0.25c-5.453,7.409-10.132,14.89-13.967,22.335c-6.693,12.995-10.818,25.92-12.26,38.416
					l1.041,0.12c1.285-11.132,4.725-22.614,10.235-34.189c0.053,0.126,0.166,0.225,0.349,0.244c4.741,0.496,9.462-0.768,13.609-3.04
					c4.212-2.309,7.756-5.637,10.842-9.285c1.755-2.075,3.371-4.262,4.938-6.48c0.219-0.309,0.019-0.85-0.417-0.775
					c-4.689,0.807-9.504,1.638-13.779,3.83c-4.026,2.064-7.035,5.364-10,8.697c-1.45,1.63-2.909,3.258-4.525,4.724
					c0.293-0.59,0.59-1.18,0.894-1.77c4.449-8.64,10.046-17.331,16.676-25.902c0.152-0.044,0.281-0.16,0.318-0.36
					c0.004-0.022,0.008-0.044,0.012-0.066c1.182-1.519,2.395-3.035,3.641-4.545c0.265-0.321,0.53-0.639,0.794-0.956
					c0.101,0.051,0.225,0.067,0.361,0.024c0.784-0.248,1.567-0.496,2.351-0.748c1.163-0.139,2.352,0.015,3.517,0.109
					c1.312,0.106,2.629,0.117,3.942,0.02c2.631-0.194,5.229-0.795,7.714-1.671c5.104-1.799,9.688-4.778,13.924-8.1
					c2.392-1.875,4.69-3.865,6.986-5.855c0.362-0.314,0.156-0.872-0.329-0.859c-5.915,0.162-12.011,0.353-17.604,2.497
					c-5.069,1.944-8.919,5.697-13.102,9.008c-2.006,1.587-4.121,3.051-6.475,4.051c11.671-13.711,22.519-22.894,25.348-25.211
					c0.066,0.002,0.138-0.012,0.214-0.05c0.082-0.041,0.165-0.081,0.248-0.121c0.482-0.152,0.969-0.278,1.46-0.382
					c6.023-0.822,11.503,2.925,16.757,5.341c2.879,1.324,5.832,2.181,9,2.419c3.015,0.226,6.185,0.129,9.002-1.085
					c0.984-0.424,3.248-1.489,2.467-2.939c-0.374-0.695-1.288-0.731-1.978-0.811c-0.813-0.094-1.631-0.135-2.449-0.132
					c-0.22-0.862-0.783-1.587-1.52-2.04c2.993-0.784,6.201-2.077,8.325-4.367c0.518-0.559,0.965-1.324,0.916-2.111
					c-0.047-0.753-0.614-1.299-1.317-1.484c-0.816-0.214-1.741-0.051-2.568,0c-0.759,0.047-1.518,0.094-2.277,0.141
					c1.083-1.931,1.034-4.885-1.614-5.226c-1.494-0.192-3.116,0.018-4.594,0.248c-0.609,0.095-1.215,0.213-1.815,0.352
					c0.484-0.29,0.968-0.583,1.451-0.878c2.565-1.566,5.994-3.505,5.636-7.03c-0.166-1.638-1.356-2.842-2.89-3.316
					c-1.569-0.485-3.176-0.179-4.722,0.252c0.486-0.596,0.923-1.229,1.306-1.9c0.508-0.89,0.999-1.884,1.031-2.928
					c0.066-2.127-2.002-2.835-3.788-2.645c-1.084,0.115-2.172,0.426-3.183,0.827c-0.525,0.209-1.03,0.457-1.527,0.726
					c-0.065,0.035-0.107,0.053-0.135,0.066c0.001-0.065,0.017-0.136,0.022-0.174c0.041-0.275,0.147-0.546,0.244-0.804
					c0.342-0.91,0.812-1.834,0.73-2.836c-0.079-0.969-0.691-1.555-1.674-1.491c-1.801,0.117-3.542,1.116-4.941,2.255
					c0.26-1.468,0.087-2.959-1.32-3.886c-1.63-1.073-3.533-0.726-5.288-0.187c0.171-1.758,0.357-3.517,0.493-5.277
					c0.051-0.652,0.051-1.362-0.285-1.946c-0.34-0.591-1.001-0.871-1.663-0.713C179.387,121.232,178.809,121.891,178.324,122.497z"
					/>
				<g>
					<path style="fill:none;stroke:#161616;stroke-width:1.0477;stroke-miterlimit:10;" d="M172.81,164.188
						c0,0-54.836,43.026-61.128,97.536"/>
					<path style="fill:#161616;" d="M209.1,171.298c0.984-0.424,3.248-1.489,2.467-2.939c-0.374-0.695-1.288-0.731-1.978-0.811
						c-0.813-0.094-1.631-0.135-2.449-0.132c-0.22-0.862-0.783-1.587-1.52-2.04c2.993-0.784,6.201-2.077,8.325-4.367
						c0.518-0.559,0.965-1.324,0.916-2.111c-0.047-0.753-0.614-1.299-1.317-1.484c-0.816-0.214-1.741-0.051-2.568,0
						c-0.759,0.047-1.518,0.094-2.277,0.141c1.083-1.931,1.034-4.885-1.614-5.226c-1.494-0.192-3.116,0.018-4.594,0.248
						c-0.609,0.095-1.215,0.213-1.815,0.352c0.484-0.29,0.968-0.583,1.451-0.878c2.565-1.566,5.994-3.505,5.636-7.03
						c-0.166-1.638-1.356-2.842-2.89-3.316c-1.569-0.485-3.176-0.179-4.722,0.252c0.486-0.596,0.923-1.229,1.306-1.9
						c0.508-0.89,0.999-1.884,1.031-2.928c0.066-2.127-2.002-2.835-3.788-2.645c-1.084,0.115-2.172,0.426-3.183,0.827
						c-0.525,0.209-1.03,0.457-1.527,0.726c-0.065,0.035-0.107,0.053-0.135,0.066c0.001-0.065,0.017-0.136,0.022-0.174
						c0.041-0.275,0.147-0.546,0.244-0.804c0.342-0.91,0.812-1.834,0.73-2.836c-0.079-0.969-0.691-1.555-1.674-1.491
						c-1.801,0.117-3.542,1.116-4.941,2.255c0.26-1.468,0.087-2.959-1.32-3.886c-1.63-1.073-3.533-0.726-5.288-0.187
						c0.171-1.758,0.357-3.517,0.493-5.277c0.051-0.652,0.051-1.362-0.285-1.946c-0.34-0.591-1.001-0.871-1.663-0.713
						c-0.787,0.188-1.365,0.847-1.851,1.453c-0.534,0.667-0.995,1.394-1.409,2.141c-0.893,1.613-1.62,3.334-2.316,5.039
						c-0.241,0.59-0.468,1.186-0.679,1.787c-0.325-0.706-0.838-1.316-1.532-1.714c-0.956-0.548-2.12-0.573-3.096-0.106
						c-0.008-0.028-0.02-0.057-0.035-0.087c-0.395-0.781-0.791-1.562-1.186-2.342c-0.302-0.596-0.572-1.299-1.086-1.752
						c-1.221-1.077-2.438,0.222-3.005,1.292c-1.339,2.528-1.287,5.568-0.631,8.284c0.791,3.275,2.375,6.295,3.523,9.448
						c1.163,3.193,2.085,6.469,2.903,9.766c0.453,1.828,0.925,3.666,1.249,5.523c0.307,1.759,0.441,3.599-0.101,5.328
						c-0.182,0.579,0.684,0.979,0.867,0.395c0.087-0.279,0.16-0.558,0.219-0.838c0.001,0.01,0.002,0.019,0.004,0.029
						c0.004,0.31,0.269,0.61,0.62,0.436c0.082-0.041,0.165-0.081,0.248-0.121c0.482-0.152,0.969-0.278,1.46-0.382
						c6.023-0.822,11.503,2.925,16.757,5.341c2.879,1.324,5.832,2.181,9,2.419C203.114,172.609,206.283,172.512,209.1,171.298z
						 M190.712,132.551c0.775-0.393,1.805-0.854,2.694-0.811c1.004,0.049,0.295,1.862,0.097,2.361
						c-0.28,0.707-0.815,1.681-0.512,2.457c0.423,1.084,1.58,0.217,2.23-0.083c1.103-0.51,2.301-0.895,3.511-1.035
						c0.826-0.096,1.931-0.081,2.501,0.632c0.736,0.918,0.048,2.289-0.413,3.169c-0.553,1.057-1.262,2.017-2.081,2.882
						c-0.293,0.309-0.026,0.691,0.304,0.749c0.107,0.181,0.316,0.307,0.572,0.23c1.529-0.458,3.165-0.952,4.763-0.552
						c1.349,0.337,2.389,1.344,2.452,2.775c0.064,1.457-0.767,2.753-1.842,3.661c-1.277,1.079-2.783,1.913-4.211,2.773
						c-2.911,1.753-5.833,3.421-8.959,4.766c-3.016,1.297-6.115,2.385-9.202,3.498c-3.038,1.095-6.071,2.219-9.001,3.58
						c1.795-3.423,2.247-7.345,3.344-11.017c1.205-4.035,3.222-7.8,5.583-11.27c1.152-1.694,2.375-3.357,3.7-4.921
						C187.508,134.899,188.947,133.447,190.712,132.551z M176.063,128.661c0.678-1.557,1.351-3.147,2.284-4.573
						c0.463-0.708,1.04-1.648,1.821-2.035c0.882-0.437,1.045,0.628,1.029,1.253c-0.026,0.999-0.18,2.008-0.273,3.003
						c-0.102,1.089-0.204,2.177-0.306,3.266c-0.035,0.367,0.283,0.643,0.642,0.523c1.56-0.52,3.364-1.117,4.923-0.267
						c1.666,0.908,1.298,2.83,0.791,4.329c-0.005,0.016-0.01,0.032-0.014,0.048c-1.266,1.255-2.368,2.671-3.434,4.096
						c-2.641,3.53-4.995,7.326-6.594,11.449c-0.902,2.327-1.466,4.74-2.046,7.162c-0.166,0.693-0.34,1.385-0.533,2.071
						c0.024-1.431-0.118-2.88-0.215-4.225c-0.255-3.527-0.693-7.04-0.85-10.573c-0.153-3.463-0.015-6.962,0.873-10.329
						C174.633,132.071,175.327,130.352,176.063,128.661z M171.358,156.802c-0.717-3.083-1.488-6.157-2.427-9.181
						c-0.95-3.059-2.18-5.981-3.37-8.949c-1.074-2.677-1.982-5.537-1.636-8.458c0.088-0.739,0.249-1.471,0.516-2.167
						c0.243-0.635,0.579-1.501,1.169-1.896c0.777-0.52,1.229,0.724,1.489,1.24c0.423,0.837,0.847,1.673,1.27,2.51
						c0.032,0.063,0.072,0.114,0.118,0.154c-0.001,0.024-0.001,0.048,0.002,0.074c0.025,0.25,0.2,0.382,0.393,0.407
						c0.149,0.151,0.385,0.22,0.613,0.074c1.711-1.094,3.584,0.433,3.842,2.185c0.012,0.084,0.042,0.154,0.082,0.211
						c-0.205,0.697-0.383,1.401-0.528,2.114c-0.36,1.772-0.529,3.576-0.585,5.383c-0.115,3.754,0.282,7.497,0.623,11.23
						c0.19,2.075,0.366,4.153,0.427,6.237c0.055,1.88,0,3.93-1.082,5.548c-0.14,0.209-0.096,0.435,0.027,0.592
						c0,0.027,0.002,0.053,0.008,0.078c-0.002,0.001-0.004,0.001-0.006,0.002c-0.113,0.038-0.189,0.102-0.237,0.179
						C172.52,161.849,171.936,159.288,171.358,156.802z M176.563,163.351c5.272-2.188,10.769-3.822,16.003-6.113
						c1.771-0.775,3.482-1.656,5.162-2.595c0.106,0.062,0.24,0.082,0.389,0.029c2.546-0.911,5.223-1.403,7.928-1.439
						c0.513-0.007,1.069-0.008,1.549,0.199c0.539,0.232,0.74,0.736,0.807,1.288c0.138,1.134-0.271,2.243-1.044,3.07
						c-0.297,0.318,0.032,0.799,0.417,0.775c0.88-0.055,1.76-0.109,2.639-0.164c0.812-0.05,1.655-0.173,2.469-0.129
						c0.673,0.037,1.204,0.383,0.964,1.123c-0.226,0.698-0.817,1.218-1.363,1.672c-2.453,2.037-5.653,3.151-8.741,3.774
						c-3.309,0.668-6.718,0.756-10.074,0.456c-3.407-0.305-6.739-1.084-10.117-1.591
						C181.245,163.361,178.886,163.165,176.563,163.351z M198.574,171.271c-2.879-0.384-5.541-1.414-8.14-2.675
						c-2.556-1.24-5.04-2.642-7.704-3.646c-0.584-0.22-1.178-0.422-1.78-0.601c0.88,0.08,1.756,0.193,2.623,0.326
						c3.642,0.558,7.232,1.394,10.917,1.641c3.068,0.205,6.156,0.087,9.173-0.495c0.034,0.005,0.07,0.007,0.108,0.004
						c1.231-0.071,2.361,0.898,2.501,2.118c0.031,0.271,0.261,0.431,0.522,0.426c0.789-0.017,1.575,0.009,2.36,0.089
						c0.389,0.04,1.851,0.01,1.519,0.67c-0.279,0.555-1.018,0.865-1.546,1.115c-0.617,0.293-1.26,0.528-1.917,0.713
						C204.44,171.735,201.403,171.648,198.574,171.271z"/>
					<path style="fill:#161616;" d="M152.016,191.295c1.312,0.106,2.629,0.117,3.942,0.02c2.631-0.194,5.229-0.795,7.714-1.671
						c5.104-1.799,9.688-4.778,13.924-8.1c2.392-1.875,4.69-3.865,6.986-5.855c0.362-0.314,0.156-0.872-0.329-0.859
						c-5.915,0.162-12.011,0.353-17.604,2.497c-5.069,1.944-8.919,5.697-13.102,9.008c-2.301,1.821-4.746,3.479-7.53,4.462
						c-0.153,0.054-0.241,0.156-0.277,0.273c-0.491,0.228-0.151,1.04,0.41,0.862c0.784-0.248,1.567-0.496,2.351-0.748
						C149.663,191.046,150.851,191.201,152.016,191.295z M157.476,187.968c3.724-1.561,7.289-3.495,10.886-5.322
						c2.085-1.059,4.17-2.117,6.254-3.176c0.541-0.275,0.203-1.166-0.345-0.888c-3.685,1.871-7.369,3.744-11.054,5.614
						c-3.568,1.811-7.185,3.421-10.966,4.74c-0.43,0.15-0.862,0.297-1.294,0.443c2.875-1.853,5.445-4.213,8.108-6.348
						c2.069-1.658,4.239-3.202,6.668-4.29c2.698-1.208,5.589-1.898,8.51-2.301c2.896-0.4,5.819-0.533,8.74-0.621
						c-7.688,6.639-16.127,13.522-26.606,14.506c-1.523,0.143-3.042,0.132-4.565,0c-0.181-0.016-0.362-0.031-0.543-0.046
						C153.362,189.573,155.439,188.822,157.476,187.968z"/>
					<path style="fill:#161616;" d="M141.341,197.477c0.083-0.448,0.163-0.896,0.24-1.344c0.134-0.021,0.258-0.103,0.328-0.267
						c0.204-0.472,0.4-0.946,0.592-1.422c3.63-4.22,6.872-8.768,9.669-13.581c1.43-2.46,2.74-5.006,3.669-7.701
						c0.967-2.806,1.367-5.713,1.762-8.642c0.473-3.509,0.947-7.019,1.42-10.528c0.049-0.363-0.294-0.649-0.642-0.523
						c-5.611,2.031-10.05,6.361-13.142,11.372c-0.822,1.332-1.585,2.721-2.177,4.171c-0.655,1.603-0.967,3.236-0.986,4.966
						c-0.02,1.828,0.079,3.657,0.065,5.486c-0.015,1.846-0.082,3.691-0.199,5.533c-0.263,4.134-0.78,8.25-1.538,12.323
						C140.289,197.922,141.229,198.079,141.341,197.477z M143.065,176.26c-0.039-1.758-0.135-3.514,0.312-5.234
						c0.406-1.564,1.154-3.036,1.936-4.441c1.418-2.547,3.17-4.921,5.245-6.972c2.132-2.108,4.637-3.834,7.414-4.966l-1.147,8.502
						c-0.393,2.913-0.693,5.869-1.551,8.691c-0.809,2.658-2.029,5.178-3.383,7.597c-1.387,2.479-2.91,4.882-4.537,7.21
						c-1.213,1.736-2.489,3.427-3.822,5.073c2.772-7.776,4.363-15.953,7.562-23.584c1.067-2.546,2.318-5.019,3.831-7.331
						c0.333-0.508-0.402-1.115-0.738-0.602c-5.431,8.294-7.363,18.126-10.291,27.445c-0.554,1.765-1.15,3.518-1.811,5.246
						C142.859,187.388,143.189,181.821,143.065,176.26z"/>
					<path style="fill:#161616;" d="M138.24,201.264c1.218-1.414,1.301-3.393,0.76-5.109c0.123-0.056,0.226-0.162,0.267-0.326
						c0.913-3.588,0.518-7.318-0.03-10.93c-0.274-1.81-0.502-3.664-1.098-5.403c-0.591-1.722-1.663-3.171-2.762-4.598
						c-1.282-1.666-2.452-3.397-3.466-5.239c-0.187-0.34-0.669-0.194-0.818,0.083c-2.036,3.777-3.484,8.367-1.738,12.535
						c0.876,2.091,2.305,3.941,3.563,5.811c1.363,2.026,2.794,4.022,4.08,6.098c1.167,1.883,2.16,4.555,0.504,6.476
						C137.101,201.128,137.84,201.729,138.24,201.264z M131.164,183.713c-1.207-2-1.823-4.154-1.598-6.498
						c0.211-2.207,0.988-4.308,1.979-6.28c0.757,1.311,1.589,2.577,2.5,3.789c1.034,1.376,2.187,2.706,2.886,4.295
						c0.745,1.696,0.984,3.558,1.266,5.373c0.269,1.73,0.519,3.466,0.622,5.215c0.091,1.553,0.052,3.108-0.195,4.638
						c-1.536-2.503-2.221-5.4-2.832-8.246c-0.321-1.494-0.628-2.993-1.028-4.469c-0.444-1.638-1.014-3.237-1.585-4.833
						c-0.206-0.577-1.095-0.233-0.888,0.345c0.589,1.648,1.177,3.299,1.628,4.992c0.399,1.503,0.7,3.029,1.031,4.548
						c0.344,1.577,0.722,3.156,1.252,4.675c-0.332-0.492-0.664-0.983-0.995-1.475C133.851,187.769,132.417,185.79,131.164,183.713z"
						/>
					<path style="fill:#161616;" d="M136.395,224.799c4.212-2.309,7.756-5.637,10.842-9.285c1.755-2.075,3.371-4.262,4.938-6.48
						c0.219-0.309,0.019-0.85-0.417-0.775c-4.689,0.807-9.504,1.638-13.779,3.83c-4.026,2.064-7.035,5.364-10,8.697
						c-1.679,1.887-3.37,3.773-5.303,5.406c-0.265,0.224-0.198,0.572-0.004,0.756c-0.366,0.189-0.388,0.838,0.116,0.891
						C127.527,228.335,132.249,227.071,136.395,224.799z M132.248,217.561c1.556-1.558,3.254-2.978,5.162-4.086
						c2.051-1.19,4.304-2.014,6.584-2.644c2.22-0.613,4.486-1.038,6.754-1.433c-5.162,7.185-11.337,14.253-20.131,16.78
						c-1.975,0.567-4.029,0.857-6.082,0.818c5.117-2.311,9.983-5.176,14.477-8.545c1.364-1.022,2.691-2.091,3.984-3.202
						c0.462-0.396-0.095-1.17-0.562-0.77c-4.515,3.878-9.476,7.237-14.771,9.956c-1.137,0.584-2.289,1.138-3.454,1.664
						C127.089,223.45,129.484,220.328,132.248,217.561z"/>
				</g>
			</g>
			<g>
				<path style="fill:#FFFFFF;" d="M424.633,464.649c0.853,0.06,1.712,0.025,2.563-0.06c1.834-0.183,3.663-0.564,5.461-0.962
					c0.622-0.137,1.241-0.29,1.856-0.458c-0.396,0.669-0.606,1.438-0.538,2.235c0.093,1.098,0.735,2.069,1.674,2.607
					c-0.019,0.023-0.036,0.049-0.052,0.078c-0.417,0.769-0.835,1.538-1.252,2.308c-0.319,0.588-0.743,1.209-0.823,1.89
					c-0.191,1.617,1.57,1.879,2.773,1.737c2.841-0.337,5.311-2.109,7.172-4.193c2.243-2.513,3.827-5.534,5.767-8.272
					c1.965-2.773,4.134-5.395,6.381-7.943c1.246-1.413,2.489-2.846,3.832-4.168c1.257-1.238,2.675-2.38,4.377-2.926
					c4.683,1.292,17.529,4.537,33.923,6.216c-3.411-0.118-6.828-0.045-10.232,0.223c-2.836,0.223-5.676,0.594-8.421,1.363
					c-2.858,0.8-5.476,2.126-8.11,3.467c-3.156,1.607-6.311,3.214-9.467,4.821c-0.326,0.166-0.367,0.611-0.065,0.826
					c4.863,3.46,10.948,4.647,16.829,4.34c1.563-0.082,3.139-0.244,4.668-0.582c1.691-0.374,3.211-1.045,4.645-2.014
					c1.515-1.023,2.963-2.146,4.476-3.174c1.527-1.038,3.082-2.032,4.664-2.984c3.402-2.046,6.923-3.891,10.538-5.531
					c0.646,0.036,1.289,0.068,1.931,0.098c-0.617,0.399-1.165,0.92-1.618,1.502c-0.116-0.069-0.262-0.093-0.42-0.035
					c-3.47,1.29-6.313,3.737-8.972,6.242c-1.332,1.255-2.728,2.497-3.819,3.977c-1.08,1.465-1.662,3.171-2.211,4.887
					c-0.641,2.002-1.399,3.949-2.337,5.831c-0.173,0.347,0.221,0.66,0.534,0.626c4.264-0.474,8.863-1.894,11.298-5.701
					c1.221-1.91,1.931-4.138,2.752-6.236c0.891-2.274,1.719-4.585,2.694-6.824c0.885-2.031,2.518-4.367,5.039-4.098
					c0.107,0.011,0.196-0.009,0.27-0.049c9.195,0.27,18.01-0.136,26.315-1.218c14.495-1.887,27.471-5.847,38.57-11.769l-0.493-0.924
					c-9.886,5.275-21.287,8.978-33.941,11.03c0.074-0.115,0.09-0.264,0.002-0.426c-2.289-4.181-6.014-7.346-10.241-9.463
					c-4.295-2.151-9.048-3.173-13.803-3.635c-2.705-0.263-5.423-0.348-8.139-0.375c-0.379-0.004-0.71,0.468-0.4,0.784
					c3.331,3.398,6.753,6.885,10.988,9.154c3.987,2.137,8.414,2.735,12.842,3.277c2.165,0.265,4.334,0.54,6.459,1.035
					c-0.652,0.094-1.306,0.186-1.965,0.272c-9.637,1.256-19.968,1.596-30.789,1.019c-0.122-0.1-0.291-0.141-0.478-0.057
					c-0.02,0.009-0.04,0.018-0.061,0.027c-1.922-0.108-3.858-0.243-5.809-0.409c-0.415-0.035-0.827-0.072-1.238-0.109
					c-0.016-0.113-0.073-0.223-0.186-0.31c-0.65-0.503-1.3-1.007-1.952-1.508c-0.776-0.878-1.325-1.943-1.911-2.954
					c-0.659-1.139-1.399-2.229-2.225-3.254c-1.656-2.053-3.628-3.849-5.762-5.394c-4.383-3.174-9.441-5.25-14.582-6.844
					c-2.903-0.9-5.847-1.659-8.789-2.415c-0.464-0.119-0.806,0.368-0.519,0.759c3.498,4.773,7.123,9.678,12.068,13.058
					c4.482,3.063,9.759,4.095,14.862,5.652c2.446,0.747,4.853,1.654,7.015,3.021c-17.916-1.8-31.639-5.499-35.154-6.507
					c-0.036-0.056-0.089-0.107-0.163-0.148c-0.08-0.044-0.16-0.09-0.24-0.135c-0.4-0.31-0.78-0.639-1.145-0.983
					c-4.102-4.486-4.138-11.124-5.139-16.82c-0.549-3.121-1.524-6.037-3.13-8.778c-1.529-2.609-3.412-5.16-6.013-6.786
					c-0.909-0.568-3.072-1.824-3.821-0.357c-0.359,0.703,0.131,1.476,0.458,2.089c0.385,0.722,0.817,1.418,1.285,2.089
					c-0.583,0.671-0.86,1.547-0.813,2.41c-2.347-2.016-5.235-3.919-8.328-4.363c-0.755-0.108-1.638-0.041-2.257,0.447
					c-0.592,0.467-0.72,1.244-0.471,1.927c0.288,0.793,0.948,1.461,1.461,2.112c0.47,0.598,0.941,1.195,1.411,1.793
					c-2.204,0.208-4.606,1.928-3.38,4.3c0.692,1.338,1.787,2.552,2.818,3.637c0.425,0.447,0.866,0.878,1.322,1.293
					c-0.514-0.233-1.03-0.464-1.547-0.694c-2.747-1.219-6.292-2.936-8.987-0.637c-1.252,1.069-1.566,2.732-1.084,4.263
					c0.493,1.567,1.659,2.715,2.893,3.74c-0.766-0.061-1.536-0.06-2.305,0.007c-1.022,0.088-2.118,0.25-2.995,0.818
					c-1.787,1.156-1.192,3.259-0.02,4.62c0.712,0.826,1.586,1.544,2.491,2.147c0.47,0.313,0.962,0.588,1.465,0.843
					c0.066,0.033,0.105,0.058,0.131,0.073c-0.054,0.035-0.121,0.064-0.156,0.081c-0.249,0.123-0.533,0.19-0.801,0.257
					c-0.943,0.236-1.971,0.375-2.747,1.012c-0.752,0.617-0.886,1.453-0.275,2.225c1.121,1.415,2.933,2.278,4.665,2.781
					c-1.355,0.621-2.483,1.612-2.445,3.296c0.044,1.951,1.413,3.319,2.854,4.456c-1.543,0.86-3.095,1.707-4.621,2.596
					c-0.565,0.329-1.149,0.733-1.438,1.341c-0.293,0.615-0.147,1.318,0.359,1.773C422.987,464.494,423.858,464.595,424.633,464.649z
					"/>
				<g>
					<path style="fill:none;stroke:#161616;stroke-width:1.0477;stroke-miterlimit:10;" d="M462.058,445.469
						c0,0,66.579,20.625,114.991-5.207"/>
					<path style="fill:#161616;" d="M447.262,411.577c-0.909-0.568-3.072-1.824-3.821-0.357c-0.359,0.703,0.131,1.476,0.458,2.089
						c0.385,0.722,0.817,1.418,1.285,2.089c-0.583,0.671-0.86,1.547-0.813,2.41c-2.347-2.016-5.235-3.919-8.328-4.363
						c-0.755-0.108-1.638-0.041-2.257,0.447c-0.592,0.467-0.72,1.244-0.471,1.927c0.288,0.793,0.948,1.461,1.461,2.112
						c0.47,0.598,0.941,1.195,1.411,1.793c-2.204,0.208-4.606,1.928-3.38,4.3c0.692,1.338,1.787,2.552,2.818,3.637
						c0.425,0.447,0.866,0.878,1.322,1.293c-0.514-0.233-1.03-0.464-1.547-0.694c-2.747-1.219-6.292-2.936-8.987-0.637
						c-1.252,1.069-1.566,2.732-1.084,4.263c0.493,1.567,1.659,2.715,2.893,3.74c-0.766-0.061-1.536-0.06-2.305,0.007
						c-1.022,0.088-2.118,0.25-2.995,0.818c-1.787,1.156-1.192,3.259-0.02,4.62c0.712,0.826,1.586,1.544,2.491,2.147
						c0.47,0.313,0.962,0.588,1.465,0.843c0.066,0.033,0.105,0.058,0.131,0.073c-0.054,0.035-0.121,0.064-0.156,0.081
						c-0.249,0.123-0.533,0.19-0.801,0.257c-0.943,0.236-1.971,0.375-2.747,1.012c-0.752,0.617-0.886,1.453-0.275,2.225
						c1.121,1.415,2.933,2.278,4.665,2.781c-1.355,0.621-2.483,1.612-2.445,3.296c0.044,1.951,1.413,3.319,2.854,4.456
						c-1.543,0.86-3.095,1.707-4.621,2.596c-0.565,0.329-1.149,0.733-1.438,1.341c-0.293,0.615-0.147,1.318,0.359,1.773
						c0.603,0.541,1.473,0.641,2.248,0.695c0.853,0.06,1.712,0.025,2.563-0.06c1.834-0.183,3.663-0.564,5.461-0.962
						c0.622-0.137,1.241-0.29,1.856-0.458c-0.396,0.669-0.606,1.438-0.538,2.235c0.093,1.098,0.735,2.069,1.674,2.607
						c-0.019,0.023-0.036,0.049-0.052,0.078c-0.417,0.769-0.835,1.538-1.252,2.308c-0.319,0.588-0.743,1.209-0.823,1.89
						c-0.191,1.617,1.57,1.879,2.773,1.737c2.841-0.337,5.311-2.109,7.172-4.193c2.243-2.513,3.827-5.534,5.767-8.272
						c1.965-2.773,4.134-5.395,6.381-7.943c1.246-1.413,2.489-2.846,3.832-4.168c1.272-1.253,2.71-2.41,4.44-2.948
						c0.579-0.18,0.416-1.119-0.168-0.938c-0.279,0.087-0.549,0.186-0.813,0.296c0.007-0.007,0.015-0.012,0.022-0.02
						c0.253-0.18,0.349-0.568,0.006-0.758c-0.08-0.044-0.16-0.09-0.24-0.135c-0.4-0.31-0.78-0.639-1.145-0.983
						c-4.102-4.486-4.138-11.124-5.139-16.82c-0.549-3.121-1.524-6.037-3.13-8.778C451.746,415.755,449.863,413.204,447.262,411.577
						z M425.855,448.741c-0.764-0.414-1.729-0.999-2.199-1.755c-0.531-0.854,1.364-1.302,1.887-1.423
						c0.74-0.172,1.846-0.286,2.312-0.977c0.651-0.965-0.72-1.423-1.337-1.786c-1.047-0.617-2.045-1.383-2.849-2.299
						c-0.548-0.625-1.165-1.542-0.903-2.417c0.337-1.127,1.856-1.341,2.841-1.463c1.184-0.146,2.376-0.11,3.554,0.072
						c0.421,0.065,0.584-0.372,0.443-0.677c0.088-0.191,0.072-0.435-0.136-0.601c-1.247-0.997-2.583-2.061-3.164-3.603
						c-0.49-1.301-0.254-2.729,0.888-3.595c1.162-0.881,2.7-0.935,4.059-0.567c1.614,0.437,3.156,1.201,4.676,1.886
						c3.098,1.397,6.132,2.852,9.016,4.658c2.782,1.742,5.44,3.672,8.111,5.578c2.629,1.876,5.279,3.731,8.064,5.367
						c-3.836,0.47-7.319,2.33-10.963,3.517c-4.004,1.304-8.248,1.787-12.445,1.819c-2.049,0.016-4.112-0.044-6.151-0.244
						C429.609,450.041,427.596,449.684,425.855,448.741z M430.988,463.002c-1.666,0.328-3.357,0.679-5.06,0.722
						c-0.845,0.021-1.947,0.082-2.71-0.34c-0.861-0.477-0.078-1.216,0.445-1.559c0.836-0.547,1.754-0.994,2.625-1.483
						c0.953-0.535,1.907-1.07,2.86-1.606c0.322-0.181,0.368-0.599,0.065-0.826c-1.315-0.987-2.832-2.131-3.02-3.897
						c-0.201-1.887,1.589-2.677,3.11-3.114c0.017-0.005,0.032-0.01,0.048-0.016c1.752,0.327,3.543,0.428,5.322,0.495
						c4.406,0.164,8.867-0.059,13.167-1.089c2.428-0.582,4.732-1.491,7.054-2.392c0.664-0.258,1.333-0.509,2.007-0.74
						c-1.19,0.794-2.302,1.736-3.353,2.581c-2.755,2.216-5.395,4.574-8.213,6.713c-2.761,2.096-5.717,3.973-8.992,5.158
						C434.606,462.238,432.798,462.645,430.988,463.002z M456.809,450.864c-2.128,2.344-4.217,4.726-6.17,7.218
						c-1.975,2.521-3.679,5.195-5.443,7.862c-1.591,2.406-3.427,4.78-6.026,6.156c-0.658,0.348-1.352,0.632-2.076,0.808
						c-0.661,0.161-1.564,0.378-2.224,0.117c-0.869-0.343-0.103-1.422,0.172-1.93c0.447-0.824,0.894-1.648,1.341-2.473
						c0.034-0.062,0.052-0.124,0.059-0.185c0.02-0.013,0.04-0.027,0.059-0.044c0.191-0.163,0.2-0.382,0.111-0.555
						c0.039-0.208-0.038-0.442-0.287-0.546c-1.873-0.785-1.683-3.194-0.389-4.402c0.062-0.058,0.103-0.121,0.127-0.187
						c0.689-0.228,1.37-0.482,2.039-0.768c1.663-0.712,3.243-1.599,4.76-2.581c3.154-2.041,6.006-4.496,8.882-6.901
						c1.599-1.336,3.208-2.664,4.887-3.899c1.515-1.115,3.232-2.235,5.179-2.266c0.251-0.004,0.412-0.169,0.472-0.36
						c0.022-0.015,0.043-0.032,0.06-0.051c0.002,0.001,0.003,0.003,0.005,0.004c0.095,0.071,0.191,0.097,0.282,0.093
						C460.299,447.038,458.525,448.975,456.809,450.864z M459.234,442.858c-4.798-3.091-9.269-6.683-14.13-9.684
						c-1.645-1.016-3.342-1.922-5.07-2.769c-0.009-0.123-0.069-0.244-0.198-0.336c-2.197-1.576-4.125-3.498-5.693-5.702
						c-0.298-0.418-0.615-0.875-0.718-1.387c-0.116-0.575,0.184-1.027,0.6-1.396c0.854-0.758,1.999-1.053,3.119-0.888
						c0.43,0.063,0.639-0.48,0.4-0.784c-0.545-0.693-1.091-1.385-1.636-2.078c-0.503-0.639-1.084-1.263-1.51-1.957
						c-0.352-0.575-0.37-1.208,0.375-1.432c0.703-0.211,1.467-0.021,2.15,0.17c3.071,0.858,5.807,2.857,8.077,5.042
						c2.431,2.342,4.443,5.095,6.105,8.026c1.688,2.976,2.942,6.159,4.446,9.226C456.58,439.001,457.761,441.053,459.234,442.858z
						 M453.228,420.25c1.322,2.586,1.989,5.362,2.43,8.217c0.434,2.807,0.694,5.648,1.383,8.41c0.151,0.606,0.323,1.209,0.518,1.806
						c-0.435-0.769-0.84-1.554-1.224-2.343c-1.613-3.313-2.967-6.741-4.861-9.912c-1.576-2.64-3.43-5.112-5.625-7.263
						c-0.015-0.031-0.034-0.061-0.058-0.091c-0.759-0.972-0.604-2.453,0.319-3.262c0.205-0.18,0.206-0.46,0.053-0.671
						c-0.463-0.639-0.888-1.301-1.27-1.992c-0.189-0.342-1.044-1.528-0.313-1.63c0.615-0.086,1.29,0.346,1.796,0.637
						c0.592,0.341,1.151,0.736,1.677,1.171C450.272,415.161,451.929,417.709,453.228,420.25z"/>
					<path style="fill:#161616;" d="M496.18,447.151c-0.659-1.139-1.399-2.229-2.225-3.254c-1.656-2.053-3.628-3.849-5.762-5.394
						c-4.383-3.174-9.441-5.25-14.582-6.844c-2.903-0.9-5.847-1.659-8.789-2.415c-0.464-0.119-0.806,0.368-0.519,0.759
						c3.498,4.773,7.123,9.678,12.068,13.058c4.482,3.063,9.759,4.095,14.862,5.652c2.806,0.856,5.561,1.924,7.953,3.655
						c0.131,0.095,0.265,0.109,0.382,0.073c0.467,0.274,0.941-0.467,0.477-0.828c-0.65-0.503-1.3-1.007-1.952-1.508
						C497.315,449.228,496.766,448.163,496.18,447.151z M490.338,444.553c-3.402-2.174-7.021-4.007-10.569-5.926
						c-2.057-1.112-4.113-2.225-6.17-3.337c-0.533-0.289-1.075,0.497-0.534,0.789c3.635,1.966,7.271,3.931,10.905,5.898
						c3.519,1.905,6.901,3.964,10.136,6.323c0.368,0.268,0.735,0.54,1.1,0.812c-3.159-1.311-6.562-2.082-9.833-3.058
						c-2.541-0.758-5.045-1.664-7.321-3.044c-2.528-1.532-4.74-3.517-6.733-5.69c-1.977-2.154-3.748-4.483-5.482-6.835
						c9.834,2.547,20.295,5.572,27.065,13.631c0.984,1.171,1.839,2.427,2.597,3.755c0.09,0.158,0.18,0.316,0.271,0.473
						C493.999,447.024,492.2,445.743,490.338,444.553z"/>
					<path style="fill:#161616;" d="M507.337,452.414c-0.415,0.186-0.829,0.376-1.242,0.568c-0.093-0.098-0.232-0.153-0.407-0.118
						c-0.504,0.101-1.006,0.209-1.506,0.322c-5.536-0.585-11.12-0.664-16.671-0.227c-2.836,0.223-5.676,0.594-8.421,1.363
						c-2.858,0.8-5.476,2.126-8.11,3.467c-3.156,1.607-6.311,3.214-9.467,4.821c-0.326,0.166-0.367,0.611-0.065,0.826
						c4.863,3.46,10.948,4.647,16.829,4.34c1.563-0.082,3.139-0.244,4.668-0.582c1.691-0.374,3.211-1.045,4.645-2.014
						c1.515-1.023,2.963-2.146,4.476-3.174c1.527-1.038,3.082-2.032,4.664-2.984c3.55-2.136,7.229-4.051,11.01-5.744
						C508.301,453.026,507.896,452.164,507.337,452.414z M488.906,463.066c-1.424,1.032-2.813,2.109-4.482,2.72
						c-1.518,0.556-3.153,0.778-4.754,0.934c-2.901,0.283-5.851,0.192-8.718-0.348c-2.947-0.555-5.792-1.633-8.302-3.273
						l7.645-3.893c2.619-1.334,5.221-2.769,8.031-3.668c2.646-0.847,5.413-1.277,8.173-1.539c2.828-0.269,5.671-0.384,8.511-0.37
						c2.118,0.01,4.235,0.098,6.346,0.258c-7.972,2.143-15.603,5.486-23.698,7.196c-2.701,0.57-5.447,0.949-8.209,1.019
						c-0.608,0.015-0.688,0.965-0.075,0.95c9.911-0.252,19.096-4.254,28.426-7.148c1.767-0.548,3.548-1.056,5.345-1.495
						C498.176,456.905,493.409,459.801,488.906,463.066z"/>
					<path style="fill:#161616;" d="M512.216,452.81c-1.856-0.198-3.53,0.86-4.634,2.281c-0.116-0.069-0.262-0.093-0.42-0.035
						c-3.47,1.29-6.313,3.737-8.972,6.242c-1.332,1.255-2.728,2.497-3.819,3.977c-1.08,1.465-1.662,3.171-2.211,4.887
						c-0.641,2.002-1.399,3.949-2.337,5.831c-0.173,0.347,0.221,0.66,0.534,0.626c4.264-0.474,8.863-1.894,11.298-5.701
						c1.221-1.91,1.931-4.138,2.752-6.236c0.891-2.274,1.719-4.585,2.694-6.824c0.885-2.031,2.518-4.367,5.039-4.098
						C512.751,453.825,512.825,452.875,512.216,452.81z M501.806,468.614c-0.958,2.131-2.38,3.862-4.435,5.011
						c-1.935,1.081-4.105,1.638-6.291,1.944c0.648-1.369,1.216-2.773,1.694-4.211c0.543-1.633,0.981-3.338,1.891-4.817
						c0.971-1.578,2.366-2.833,3.699-4.097c1.27-1.206,2.556-2.398,3.936-3.478c1.226-0.959,2.527-1.811,3.926-2.478
						c-1.185,2.687-3.178,4.898-5.171,7.02c-1.047,1.114-2.104,2.22-3.091,3.388c-1.094,1.297-2.085,2.675-3.074,4.053
						c-0.357,0.498,0.431,1.033,0.789,0.534c1.02-1.422,2.043-2.845,3.18-4.178c1.009-1.183,2.093-2.299,3.154-3.435
						c1.102-1.18,2.185-2.389,3.133-3.689c-0.216,0.552-0.431,1.105-0.647,1.657C503.614,464.097,502.801,466.402,501.806,468.614z"
						/>
					<path style="fill:#161616;" d="M532.621,440.941c-4.295-2.151-9.048-3.173-13.803-3.635c-2.705-0.263-5.423-0.348-8.139-0.375
						c-0.379-0.004-0.71,0.468-0.4,0.784c3.331,3.398,6.753,6.885,10.988,9.154c3.987,2.137,8.414,2.735,12.842,3.277
						c2.507,0.307,5.02,0.626,7.463,1.286c0.335,0.091,0.583-0.162,0.624-0.426c0.363,0.193,0.91-0.158,0.667-0.602
						C540.574,446.223,536.849,443.058,532.621,440.941z M529.027,448.469c-2.166-0.394-4.301-0.982-6.297-1.922
						c-2.146-1.01-4.104-2.394-5.919-3.911c-1.767-1.477-3.405-3.099-5.02-4.74c8.846,0.159,18.171,1.216,25.251,7.012
						c1.59,1.301,2.997,2.826,4.132,4.537c-4.812-2.894-9.936-5.266-15.262-7.046c-1.616-0.54-3.251-1.024-4.9-1.455
						c-0.589-0.154-0.908,0.744-0.313,0.9c5.758,1.507,11.342,3.677,16.591,6.486c1.127,0.603,2.238,1.236,3.333,1.895
						C536.805,449.362,532.875,449.168,529.027,448.469z"/>
				</g>
			</g>
			<g>
				<path style="fill:#FFFFFF;" d="M104.315,270.224c0.101-0.033,0.187-0.113,0.218-0.25c0.016-0.07,0.03-0.14,0.043-0.21
					c0.051-0.056,0.086-0.13,0.095-0.222c0.041-0.448,0.046-0.893,0.021-1.336c-0.012-0.306-0.042-0.61-0.09-0.911
					c-0.173-1.231-0.539-2.437-0.948-3.615c-0.637-1.829-1.293-3.64-1.782-5.516c-0.934-3.585-1.425-7.279-1.484-10.983
					c-0.119-7.517,1.555-15.036,4.939-21.753c1.733-3.44,3.813-6.72,5.138-10.354c0.594-1.628,1.351-3.7,0.532-5.379
					c-0.675-1.384-2.303-1.79-3.71-1.451c-1.714,0.413-2.861,1.887-3.801,3.274c-0.419,0.617-1.09,1.948-2.042,1.6
					c-0.664-0.243-0.274-0.923-0.083-1.382c0.181-0.435,0.368-0.868,0.56-1.298c1.564-3.508,3.453-6.856,5.229-10.258
					c1.738-3.33,3.38-6.736,4.477-10.338c0.466-1.53,1.193-3.652-0.225-4.913c-0.548-0.487-1.285-0.66-1.965-0.356
					c-0.858,0.383-1.467,1.329-2.069,2.014l-1.955,2.224c-0.654-0.638-0.281-2.268-0.205-3.019c0.122-1.209,0.309-2.41,0.531-3.604
					c0.443-2.378,1.034-4.725,1.614-7.072c1.124-4.552,2.271-9.236,2.079-13.961c-0.039-0.964-0.283-2.104-1.363-2.374
					c-0.885-0.221-1.795,0.323-2.456,0.853c-1.762,1.413-3.341,3.139-4.79,4.864c-2.918,3.473-5.313,7.383-7.07,11.566
					c-0.981,2.337-1.768,4.752-2.338,7.222c-0.49,2.12-0.891,4.497-2.475,6.084c-0.642-1.776-1.766-3.339-3.27-4.499
					c-0.191-0.147-0.443-0.135-0.577,0.085c-4.33,7.091-5.014,15.535-4.728,23.649c0.084,2.382,0.142,4.789-0.438,7.115
					c-1.316-0.509-1.908-2.195-3.109-2.906c-0.637-0.378-1.447-0.411-2.088-0.017c-0.826,0.508-1.154,1.537-1.281,2.444
					c-0.156,1.117-0.062,2.278,0.005,3.399c0.074,1.241,0.2,2.479,0.373,3.71c0.351,2.496,0.901,4.962,1.645,7.37
					c1.486,4.811,3.729,9.396,6.635,13.509c1.436,2.032,3.032,3.953,4.775,5.729c1.941,1.978,4.07,3.756,6.164,5.566
					c4.511,3.9,9.176,8.319,10.551,14.353c-0.008,0.201-0.004,0.403,0.018,0.604c0.032,0.298,0.045,0.582,0.307,0.764
					c0.105,0.073,0.266,0.056,0.371-0.006C104.299,270.234,104.307,270.229,104.315,270.224z"/>
				<g>
					<path style="fill:#161616;" d="M104.292,270.239c0.008-0.005,0.016-0.009,0.024-0.014c0.101-0.033,0.187-0.113,0.218-0.25
						c0.016-0.07,0.03-0.14,0.043-0.21c0.051-0.056,0.086-0.13,0.095-0.222c0.041-0.448,0.046-0.893,0.021-1.336
						c-0.012-0.306-0.042-0.61-0.09-0.911c-0.173-1.231-0.539-2.437-0.948-3.615c-0.637-1.829-1.293-3.64-1.782-5.516
						c-0.934-3.585-1.425-7.279-1.484-10.983c-0.119-7.517,1.555-15.036,4.939-21.753c1.733-3.44,3.813-6.72,5.138-10.354
						c0.594-1.628,1.351-3.7,0.532-5.379c-0.675-1.384-2.303-1.79-3.71-1.451c-1.714,0.413-2.861,1.887-3.801,3.274
						c-0.419,0.617-1.09,1.948-2.042,1.6c-0.664-0.243-0.274-0.923-0.083-1.382c0.181-0.435,0.368-0.868,0.56-1.298
						c1.564-3.508,3.453-6.856,5.229-10.258c1.738-3.33,3.38-6.736,4.477-10.338c0.466-1.53,1.193-3.652-0.225-4.913
						c-0.548-0.487-1.285-0.66-1.965-0.356c-0.858,0.383-1.467,1.329-2.069,2.014l-1.955,2.224
						c-0.654-0.638-0.281-2.268-0.205-3.019c0.122-1.209,0.309-2.41,0.531-3.604c0.443-2.378,1.034-4.725,1.614-7.072
						c1.124-4.552,2.271-9.236,2.079-13.961c-0.039-0.964-0.283-2.104-1.363-2.374c-0.885-0.221-1.795,0.323-2.456,0.853
						c-1.762,1.413-3.341,3.139-4.79,4.864c-2.918,3.473-5.313,7.383-7.07,11.566c-0.981,2.337-1.768,4.752-2.338,7.222
						c-0.49,2.12-0.891,4.497-2.475,6.084c-0.642-1.776-1.766-3.339-3.27-4.499c-0.191-0.147-0.443-0.135-0.577,0.085
						c-4.33,7.091-5.014,15.535-4.728,23.649c0.084,2.382,0.142,4.789-0.438,7.115c-1.316-0.509-1.908-2.195-3.109-2.906
						c-0.637-0.378-1.447-0.411-2.088-0.017c-0.826,0.508-1.154,1.537-1.281,2.444c-0.156,1.117-0.062,2.278,0.005,3.399
						c0.074,1.241,0.2,2.479,0.373,3.71c0.351,2.496,0.901,4.962,1.645,7.37c1.486,4.811,3.729,9.396,6.635,13.509
						c1.436,2.032,3.032,3.953,4.775,5.729c1.941,1.978,4.07,3.756,6.164,5.566c4.511,3.9,9.176,8.319,10.551,14.353
						c-0.008,0.201-0.004,0.403,0.018,0.604c0.032,0.298,0.045,0.582,0.307,0.764C104.026,270.318,104.187,270.301,104.292,270.239z
						 M96.105,256.256c-3.831-3.543-7.987-6.686-11.326-10.734c-6.227-7.548-10.009-17.119-10.589-26.888
						c-0.073-1.232-0.218-2.567,0.077-3.78c0.231-0.949,0.966-2.002,2.063-1.469c0.734,0.356,1.229,1.153,1.746,1.753
						c0.544,0.631,1.174,1.227,2.018,1.398c0.198,0.04,0.393-0.063,0.449-0.264c1.141-4.076,0.399-8.432,0.499-12.602
						c0.097-4.077,0.603-8.172,1.843-12.068c0.657-2.064,1.528-4.05,2.627-5.915c1.377,1.169,2.382,2.687,2.901,4.43
						c0.087,0.292,0.407,0.326,0.62,0.156c1.604-1.287,2.264-3.295,2.731-5.224c0.521-2.153,1.021-4.289,1.764-6.381
						c1.503-4.234,3.665-8.247,6.37-11.834c1.356-1.798,2.849-3.493,4.463-5.062c0.758-0.737,1.554-1.633,2.522-2.094
						c0.386-0.184,0.875-0.323,1.265-0.073c0.59,0.377,0.544,1.289,0.557,1.9c0.093,4.678-1.034,9.255-2.148,13.764
						c-0.636,2.572-1.277,5.146-1.711,7.761c-0.209,1.26-0.373,2.53-0.463,3.804c-0.069,0.972-0.137,2.299,0.913,2.785
						c0.144,0.067,0.332,0.063,0.445-0.066c0.72-0.819,1.439-1.637,2.159-2.456c0.335-0.381,0.667-0.765,1.006-1.143
						c0.346-0.386,0.766-0.858,1.335-0.798c0.979,0.104,1.306,1.236,1.252,2.058c-0.063,0.966-0.417,1.944-0.708,2.861
						c-1.13,3.559-2.79,6.917-4.522,10.214c-1.716,3.267-3.519,6.493-5.018,9.868c-0.179,0.404-0.354,0.809-0.524,1.217
						c-0.167,0.403-0.4,0.833-0.405,1.277c-0.008,0.687,0.579,1.149,1.219,1.234c0.778,0.103,1.42-0.389,1.878-0.97
						c0.546-0.694,0.975-1.47,1.537-2.154c1.029-1.252,2.684-2.416,4.37-1.705c1.966,0.83,1.225,3.452,0.729,4.981
						c-1.184,3.647-3.233,6.921-4.99,10.304c-3.339,6.428-5.193,13.527-5.392,20.773c-0.098,3.566,0.205,7.145,0.902,10.644
						c0.354,1.776,0.812,3.53,1.374,5.251c0.016,0.05,0.033,0.099,0.049,0.148c-1.434-2.615-2.716-5.287-3.76-8.089
						c-2.312-6.202-3.618-12.741-4.313-19.311c-0.697-6.589-0.818-13.237-0.674-19.857c0.074-3.385,0.252-6.774,0.708-10.131
						c0.424-3.122,1.068-6.211,1.861-9.259c1.6-6.149,3.799-12.12,6.056-18.052c0.278-0.732,0.558-1.463,0.838-2.195
						c0.169-0.443-0.545-0.624-0.713-0.186c-2.267,5.931-4.536,11.874-6.277,17.986c-1.772,6.219-2.838,12.538-3.118,19
						c-0.287,6.618-0.213,13.293,0.322,19.897c0.531,6.55,1.589,13.09,3.585,19.362c0.982,3.085,2.192,6.1,3.655,8.989
						c0.708,1.398,1.514,2.741,2.244,4.126c0.574,1.09,1.118,2.243,1.391,3.455C102.337,262.718,99.326,259.236,96.105,256.256z"/>
				</g>
			</g>
			<g>
				<path style="fill:#FFFFFF;" d="M37.333,297.866c-0.105,0.018-0.2,0.086-0.25,0.217c-0.026,0.067-0.049,0.134-0.072,0.202
					c-0.058,0.049-0.104,0.117-0.125,0.207c-0.103,0.438-0.17,0.878-0.207,1.32c-0.031,0.305-0.043,0.609-0.038,0.915
					c-0.001,1.243,0.194,2.488,0.435,3.711c0.375,1.9,0.773,3.785,0.995,5.711c0.425,3.681,0.397,7.406-0.062,11.082
					c-0.93,7.46-3.636,14.672-7.924,20.852c-2.196,3.165-4.713,6.123-6.531,9.536c-0.815,1.529-1.854,3.475-1.277,5.253
					c0.476,1.464,2.031,2.094,3.471,1.954c1.755-0.17,3.096-1.47,4.221-2.712c0.501-0.553,1.351-1.777,2.245-1.3
					c0.624,0.333,0.143,0.952-0.11,1.38c-0.24,0.406-0.485,0.808-0.735,1.207c-2.038,3.255-4.375,6.308-6.608,9.429
					c-2.186,3.055-4.286,6.199-5.875,9.613c-0.675,1.45-1.691,3.45-0.462,4.896c0.475,0.559,1.18,0.832,1.896,0.627
					c0.903-0.259,1.638-1.112,2.329-1.706l2.246-1.93c0.559,0.723-0.038,2.285-0.218,3.018c-0.29,1.18-0.642,2.344-1.028,3.495
					c-0.77,2.293-1.683,4.534-2.584,6.778c-1.747,4.351-3.536,8.829-4.005,13.535c-0.096,0.96-0.014,2.123,1.019,2.541
					c0.845,0.342,1.823-0.069,2.551-0.502c1.942-1.154,3.746-2.643,5.421-4.149c3.374-3.032,6.291-6.57,8.613-10.467
					c1.298-2.177,2.413-4.459,3.322-6.825c0.781-2.031,1.509-4.328,3.299-5.679c0.388,1.849,1.283,3.553,2.611,4.911
					c0.168,0.172,0.42,0.195,0.583-0.004c5.276-6.418,7.131-14.684,7.979-22.759c0.249-2.371,0.527-4.762,1.425-6.985
					c1.232,0.688,1.584,2.44,2.674,3.312c0.579,0.463,1.375,0.609,2.065,0.308c0.888-0.388,1.357-1.361,1.609-2.242
					c0.31-1.084,0.379-2.247,0.469-3.366c0.1-1.239,0.148-2.482,0.148-3.726c0-2.52-0.2-5.039-0.601-7.527
					c-0.801-4.971-2.382-9.824-4.687-14.302c-1.139-2.212-2.452-4.337-3.93-6.339c-1.646-2.229-3.507-4.286-5.328-6.371
					c-3.923-4.491-7.927-9.517-8.447-15.684c0.036-0.198,0.06-0.398,0.066-0.601c0.01-0.3,0.037-0.582-0.197-0.8
					c-0.094-0.087-0.256-0.093-0.368-0.046C37.35,297.859,37.342,297.863,37.333,297.866z"/>
				<g>
					<path style="fill:#161616;" d="M37.359,297.855c-0.008,0.004-0.017,0.007-0.025,0.011c-0.105,0.018-0.2,0.086-0.25,0.217
						c-0.026,0.067-0.049,0.134-0.072,0.202c-0.058,0.049-0.104,0.117-0.125,0.207c-0.103,0.438-0.17,0.878-0.207,1.32
						c-0.031,0.305-0.043,0.609-0.038,0.915c-0.001,1.243,0.194,2.488,0.435,3.711c0.375,1.9,0.773,3.785,0.995,5.711
						c0.425,3.681,0.397,7.406-0.062,11.082c-0.93,7.46-3.636,14.672-7.924,20.852c-2.196,3.165-4.713,6.123-6.531,9.536
						c-0.815,1.529-1.854,3.475-1.277,5.253c0.476,1.464,2.031,2.094,3.471,1.954c1.755-0.17,3.096-1.47,4.221-2.712
						c0.501-0.553,1.351-1.777,2.245-1.3c0.624,0.333,0.143,0.952-0.11,1.38c-0.24,0.406-0.485,0.808-0.735,1.207
						c-2.038,3.255-4.375,6.308-6.608,9.429c-2.186,3.055-4.286,6.199-5.875,9.613c-0.675,1.45-1.691,3.45-0.462,4.896
						c0.475,0.559,1.18,0.832,1.896,0.627c0.903-0.259,1.638-1.112,2.329-1.706l2.246-1.93c0.559,0.723-0.038,2.285-0.218,3.018
						c-0.29,1.18-0.642,2.344-1.028,3.495c-0.77,2.293-1.683,4.534-2.584,6.778c-1.747,4.351-3.536,8.829-4.005,13.535
						c-0.096,0.96-0.014,2.123,1.019,2.541c0.845,0.342,1.823-0.069,2.551-0.502c1.942-1.154,3.746-2.643,5.421-4.149
						c3.374-3.032,6.291-6.57,8.613-10.467c1.298-2.177,2.413-4.459,3.322-6.825c0.781-2.031,1.509-4.328,3.299-5.679
						c0.388,1.849,1.283,3.553,2.611,4.911c0.168,0.172,0.42,0.195,0.583-0.004c5.276-6.418,7.131-14.684,7.979-22.759
						c0.249-2.371,0.527-4.762,1.425-6.985c1.232,0.688,1.584,2.44,2.674,3.312c0.579,0.463,1.375,0.609,2.065,0.308
						c0.888-0.388,1.357-1.361,1.609-2.242c0.31-1.084,0.379-2.247,0.469-3.366c0.1-1.239,0.148-2.482,0.148-3.726
						c0-2.52-0.2-5.039-0.601-7.527c-0.801-4.971-2.382-9.824-4.687-14.302c-1.139-2.212-2.452-4.337-3.93-6.339
						c-1.646-2.229-3.507-4.286-5.328-6.371c-3.923-4.491-7.927-9.517-8.447-15.684c0.036-0.198,0.06-0.398,0.066-0.601
						c0.01-0.3,0.037-0.582-0.197-0.8C37.633,297.814,37.471,297.809,37.359,297.855z M43.516,312.842
						c3.3,4.043,6.977,7.734,9.719,12.208c5.114,8.342,7.525,18.347,6.737,28.102c-0.099,1.23-0.142,2.573-0.603,3.732
						c-0.361,0.908-1.236,1.847-2.248,1.167c-0.677-0.455-1.056-1.313-1.485-1.979c-0.451-0.701-0.991-1.379-1.803-1.665
						c-0.19-0.067-0.398,0.008-0.482,0.199c-1.698,3.877-1.571,8.294-2.251,12.409c-0.665,4.024-1.736,8.008-3.507,11.694
						c-0.938,1.952-2.078,3.797-3.426,5.491c-1.201-1.349-1.985-2.993-2.256-4.791c-0.045-0.302-0.358-0.38-0.592-0.241
						c-1.768,1.051-2.702,2.947-3.433,4.792c-0.816,2.059-1.609,4.104-2.636,6.072c-2.079,3.983-4.779,7.655-7.958,10.83
						c-1.593,1.591-3.308,3.061-5.125,4.391c-0.853,0.624-1.767,1.4-2.789,1.722c-0.408,0.129-0.911,0.198-1.263-0.104
						c-0.532-0.456-0.359-1.353-0.286-1.959c0.56-4.646,2.314-9.02,4.046-13.33c0.988-2.458,1.981-4.918,2.776-7.447
						c0.383-1.219,0.722-2.453,0.989-3.702c0.204-0.953,0.457-2.257-0.516-2.885c-0.133-0.086-0.32-0.109-0.45,0.003
						c-0.827,0.71-1.653,1.42-2.48,2.131c-0.385,0.331-0.767,0.665-1.155,0.992c-0.396,0.334-0.878,0.743-1.433,0.604
						c-0.955-0.239-1.121-1.406-0.953-2.213c0.198-0.948,0.684-1.867,1.1-2.735c1.615-3.366,3.727-6.46,5.902-9.484
						c2.155-2.995,4.39-5.939,6.345-9.072c0.234-0.375,0.464-0.752,0.689-1.132c0.222-0.375,0.512-0.769,0.579-1.208
						c0.104-0.679-0.413-1.219-1.035-1.392c-0.756-0.211-1.461,0.187-1.994,0.698c-0.637,0.611-1.17,1.32-1.822,1.919
						c-1.193,1.096-2.995,2.018-4.565,1.079c-1.831-1.096-0.732-3.589-0.028-5.034c1.68-3.446,4.167-6.403,6.378-9.508
						c4.203-5.9,7.029-12.671,8.236-19.818c0.594-3.518,0.794-7.104,0.591-10.666c-0.103-1.807-0.312-3.609-0.628-5.392
						c-0.009-0.051-0.019-0.103-0.028-0.154c1.055,2.789,1.952,5.614,2.596,8.534c1.425,6.464,1.806,13.121,1.578,19.724
						c-0.228,6.622-1.035,13.222-2.101,19.757c-0.545,3.341-1.194,6.673-2.113,9.933c-0.855,3.032-1.923,6.001-3.134,8.909
						c-2.442,5.866-5.451,11.472-8.514,17.031c-0.378,0.686-0.757,1.371-1.135,2.056c-0.229,0.415,0.453,0.694,0.68,0.283
						c3.072-5.557,6.147-11.126,8.723-16.935c2.622-5.911,4.559-12.02,5.737-18.38c1.207-6.514,2.065-13.134,2.455-19.748
						c0.387-6.56,0.251-13.183-0.851-19.672c-0.542-3.191-1.32-6.346-2.366-9.41c-0.506-1.483-1.117-2.925-1.647-4.399
						c-0.417-1.159-0.794-2.377-0.895-3.615C38.245,305.575,40.741,309.443,43.516,312.842z"/>
				</g>
			</g>
			<g>
				<path style="fill:#FFFFFF;" d="M652.694,165.188l-0.015,0.163l47.243,69.475l34.479-28.524l-61.34-57.333l-0.127-0.119
					l-0.174-0.003c-0.089-0.002-1.127-0.014-2.695,0.178l-8.564-7.09l3.112-2.431l-7.956-8.493l-4.645,4.01
					c-0.051,0.029-0.097,0.069-0.134,0.116l-14.684,12.674l6.992,8.175l3.426-2.447l5.699,8.222
					C653.013,162.844,652.807,163.988,652.694,165.188z"/>
				<g>
					<path style="fill:none;stroke:#161616;stroke-width:0.9063;stroke-miterlimit:10;" d="M653.145,165.23l46.871,68.929
						l33.698-27.878L672.752,149.3C672.752,149.3,654.677,148.994,653.145,165.23z"/>
					<polyline style="fill:none;stroke:#161616;stroke-width:0.9063;stroke-miterlimit:10;" points="653.755,161.607 
						647.721,152.903 660.777,141.924 669.976,149.54 					"/>
					<polyline style="fill:none;stroke:#161616;stroke-width:0.9063;stroke-miterlimit:10;" points="647.721,152.903 
						644.26,155.376 637.831,147.859 656.623,131.638 663.943,139.452 660.777,141.924 					"/>
					<path style="fill:#161616;" d="M647.133,153.097l-6.538-7.607c-0.346-0.403-0.927,0.182-0.583,0.583
						c2.179,2.536,4.359,5.072,6.538,7.607C646.897,154.083,647.477,153.498,647.133,153.097z"/>
					<path style="fill:#161616;" d="M650.044,150.968c-2.133-2.571-4.308-5.106-6.524-7.605c-0.353-0.398-0.934,0.187-0.583,0.583
						c2.216,2.499,4.392,5.034,6.525,7.605C649.8,151.959,650.38,151.374,650.044,150.968z"/>
					<path style="fill:#161616;" d="M652.875,148.147c-2.12-2.464-4.239-4.929-6.359-7.393c-0.346-0.403-0.927,0.182-0.583,0.583
						c2.12,2.464,4.239,4.929,6.359,7.393C652.639,149.133,653.219,148.548,652.875,148.147z"/>
					<path style="fill:#161616;" d="M656.287,145.145c-0.594-0.501-1.057-1.155-1.549-1.752c-0.534-0.647-1.068-1.295-1.602-1.942
						c-1.085-1.316-2.17-2.631-3.255-3.947c-0.338-0.409-0.918,0.176-0.583,0.583c1.085,1.316,2.17,2.631,3.255,3.947
						c0.534,0.647,1.068,1.295,1.602,1.942c0.492,0.596,0.956,1.251,1.549,1.752C656.107,146.068,656.693,145.488,656.287,145.145z"
						/>
					<path style="fill:#161616;" d="M659.029,142.675c-2.162-2.546-4.349-5.07-6.561-7.573c-0.352-0.398-0.933,0.186-0.583,0.583
						c2.212,2.503,4.399,5.027,6.561,7.573C658.79,143.662,659.37,143.077,659.029,142.675z"/>
					<path style="fill:#161616;" d="M661.92,140.676c-1.101-1.409-2.203-2.817-3.304-4.226c-0.534-0.683-1.068-1.366-1.602-2.049
						c-0.466-0.597-0.902-1.239-1.568-1.63c-0.458-0.269-0.873,0.443-0.416,0.711c0.634,0.373,1.057,1.062,1.501,1.629l1.602,2.049
						c1.068,1.366,2.136,2.732,3.204,4.098C661.664,141.676,662.243,141.089,661.92,140.676z"/>
					<path style="fill:#161616;" d="M675.13,151.456c-5.394,4.06-10.665,8.282-15.8,12.665c-1.448,1.236-2.885,2.485-4.311,3.745
						c-0.398,0.352,0.186,0.933,0.583,0.583c4.993-4.412,10.118-8.674,15.37-12.775c1.514-1.183,3.04-2.351,4.575-3.507
						C675.964,151.852,675.554,151.137,675.13,151.456z"/>
					<path style="fill:#161616;" d="M719.892,193.617c-3.636,3.607-7.556,6.909-11.527,10.138
						c-3.974,3.232-8.004,6.399-11.869,9.762c-1.339,1.165-2.658,2.355-3.946,3.576c-2.057-5.281-3.06-11.093-2.192-16.735
						c0.451-2.93,1.482-5.674,2.653-8.384c1.186-2.743,2.358-5.489,3.368-8.303c1.135-3.163,2.082-6.393,2.726-9.693
						c0.101-0.518-0.693-0.74-0.794-0.219c-1.165,5.975-3.344,11.662-5.763,17.228c-1.188,2.732-2.324,5.48-2.862,8.424
						c-0.517,2.828-0.581,5.726-0.262,8.58c0.363,3.248,1.19,6.425,2.387,9.464c0.035,0.088,0.089,0.153,0.154,0.198
						c-0.617,0.594-1.227,1.195-1.829,1.806c-0.372,0.378,0.21,0.961,0.583,0.583c3.592-3.649,7.487-6.978,11.449-10.216
						c3.967-3.243,8.003-6.403,11.891-9.741c2.203-1.891,4.355-3.841,6.417-5.885C720.852,193.825,720.269,193.243,719.892,193.617z
						"/>
					<path style="fill:#161616;" d="M730.909,208.098c-2.741-2.049-4.66-4.966-7.258-7.173c0.681-0.609,1.343-1.238,1.978-1.898
						c0.368-0.382-0.214-0.965-0.583-0.583c-3.637,3.775-8.091,6.68-12.177,9.931c-4.185,3.33-8.237,6.827-12.144,10.478
						c-2.206,2.062-4.365,4.174-6.477,6.332c-0.371,0.379,0.211,0.962,0.583,0.583c0.795-0.812,1.598-1.616,2.406-2.414
						c1.866,2.654,3.766,5.283,5.703,7.885c0.313,0.421,1.029,0.01,0.711-0.416c-1.978-2.658-3.919-5.343-5.822-8.054
						c0.969-0.95,1.948-1.889,2.935-2.819c2.052,2.529,4.031,5.116,5.935,7.759c0.307,0.426,1.022,0.015,0.711-0.416
						c-1.94-2.692-3.957-5.328-6.047-7.905c1.031-0.964,2.074-1.916,3.126-2.858c2.115,2.807,4.364,5.51,6.748,8.093
						c0.36,0.39,0.942-0.193,0.583-0.583c-2.373-2.571-4.618-5.259-6.719-8.057c0.463-0.411,0.927-0.82,1.393-1.227
						c0.472-0.411,0.946-0.82,1.422-1.226c2.361,2.558,4.645,5.185,6.849,7.88c0.336,0.411,0.916-0.175,0.583-0.583
						c-2.189-2.677-4.459-5.288-6.803-7.83c1.135-0.958,2.282-1.901,3.437-2.833c2.484,2.435,4.022,5.658,6.566,8.041
						c0.387,0.362,0.971-0.219,0.583-0.583c-2.522-2.362-4.056-5.551-6.503-7.979c0.9-0.721,1.806-1.434,2.715-2.143
						c2.542,2.308,4.926,4.782,7.136,7.41c0.342,0.406,0.922-0.179,0.583-0.583c-2.188-2.601-4.547-5.052-7.06-7.34
						c0.985-0.764,1.974-1.523,2.968-2.277c0.022-0.016,0.043-0.033,0.065-0.049c2.503,2.318,5.006,4.637,7.509,6.955
						c0.389,0.36,0.973-0.221,0.583-0.583c-2.476-2.293-4.952-4.586-7.428-6.879c1.131-0.867,2.251-1.752,3.33-2.683
						c2.676,2.257,4.65,5.231,7.466,7.337C730.918,209.127,731.329,208.412,730.909,208.098z"/>
					<path style="fill:#161616;" d="M685.221,161.783c-0.134,2.715-0.865,5.393-2.157,7.787c-1.194,2.212-2.813,4.147-4.354,6.119
						c-1.542,1.973-3.008,4.008-3.944,6.347c-0.943,2.359-1.334,4.922-1.299,7.455c0.04,2.928,0.636,5.837,1.615,8.59
						c0.176,0.496,0.973,0.282,0.794-0.219c-1.714-4.821-2.283-10.263-0.492-15.149c1.742-4.751,5.783-8.087,8.225-12.428
						c1.464-2.601,2.287-5.524,2.435-8.503C686.071,161.253,685.247,161.254,685.221,161.783z"/>
					<path style="fill:#161616;" d="M693.511,180.663c1.243-3.284,2.068-6.802,1.681-10.329c-0.057-0.521-0.882-0.527-0.824,0
						c0.709,6.457-2.594,12.331-5.193,17.991c-1.299,2.829-2.463,5.732-3.02,8.808c-0.561,3.097-0.59,6.266-0.251,9.39
						c0.387,3.57,1.219,7.072,2.265,10.503c0.154,0.506,0.95,0.29,0.795-0.219c-1.84-6.03-3.107-12.471-2.127-18.777
						C687.805,191.788,691.308,186.479,693.511,180.663z"/>
				</g>
			</g>
			<g>
				<path style="fill:#FFFFFF;" d="M67.231,47.721l-0.154,0.055L24.17,120.01l40.447,19.142l25.935-79.856l0.054-0.166l-0.071-0.159
					c-0.036-0.081-0.465-1.027-1.303-2.366l2.793-10.761l3.521,1.788l4.321-10.805l-5.6-2.508c-0.048-0.034-0.103-0.059-0.162-0.073
					l-17.703-7.929l-4.442,9.798l3.668,2.066l-5.032,8.647C69.489,47.017,68.366,47.315,67.231,47.721z"/>
				<g>
					<path style="fill:none;stroke:#161616;stroke-width:0.9063;stroke-miterlimit:10;" d="M67.384,48.148l-42.57,71.665
						l39.532,18.709l25.776-79.366C90.122,59.155,82.739,42.654,67.384,48.148z"/>
					<polyline style="fill:none;stroke:#161616;stroke-width:0.9063;stroke-miterlimit:10;" points="70.924,47.164 76.251,38.011 
						91.728,45.184 88.728,56.743 					"/>
					<polyline style="fill:none;stroke:#161616;stroke-width:0.9063;stroke-miterlimit:10;" points="76.251,38.011 72.544,35.923 
						76.628,26.915 99.285,37.062 95.309,47.003 91.728,45.184 					"/>
					<path style="fill:#161616;" d="M75.826,37.561l4.12-9.146c0.218-0.484-0.558-0.762-0.775-0.281
						c-1.373,3.049-2.746,6.097-4.12,9.146C74.833,37.764,75.609,38.042,75.826,37.561z"/>
					<path style="fill:#161616;" d="M78.988,39.295c1.425-3.021,2.799-6.066,4.123-9.133c0.211-0.488-0.565-0.766-0.775-0.281
						c-1.324,3.067-2.699,6.111-4.124,9.133C77.987,39.494,78.763,39.771,78.988,39.295z"/>
					<path style="fill:#161616;" d="M82.743,40.664c1.334-2.964,2.668-5.929,4.002-8.893c0.218-0.484-0.558-0.762-0.775-0.281
						c-1.334,2.964-2.668,5.929-4.002,8.893C81.75,40.867,82.526,41.145,82.743,40.664z"/>
					<path style="fill:#161616;" d="M86.908,42.482c0.202-0.75,0.598-1.447,0.93-2.146c0.36-0.758,0.72-1.516,1.08-2.274
						c0.732-1.54,1.464-3.08,2.196-4.621c0.228-0.479-0.549-0.756-0.775-0.281c-0.732,1.54-1.464,3.08-2.196,4.621
						c-0.36,0.758-0.72,1.516-1.08,2.274c-0.332,0.698-0.728,1.396-0.93,2.146C85.996,42.71,86.77,42.994,86.908,42.482z"/>
					<path style="fill:#161616;" d="M90.307,43.918c1.39-3.037,2.749-6.088,4.079-9.152c0.211-0.487-0.564-0.766-0.775-0.281
						c-1.329,3.064-2.689,6.115-4.079,9.152C89.312,44.12,90.088,44.398,90.307,43.918z"/>
					<path style="fill:#161616;" d="M93.343,45.69c0.809-1.594,1.618-3.189,2.427-4.784c0.392-0.773,0.785-1.546,1.177-2.319
						c0.343-0.675,0.74-1.342,0.812-2.111c0.05-0.529-0.771-0.603-0.821-0.075c-0.069,0.732-0.514,1.407-0.84,2.05l-1.177,2.319
						c-0.785,1.546-1.569,3.092-2.354,4.639C92.329,45.882,93.105,46.158,93.343,45.69z"/>
					<path style="fill:#161616;" d="M89.177,62.223c-5.964-3.165-12.021-6.15-18.168-8.944c-1.733-0.788-3.473-1.56-5.22-2.318
						c-0.487-0.212-0.766,0.564-0.281,0.775c6.112,2.653,12.145,5.489,18.085,8.508c1.713,0.871,3.418,1.757,5.115,2.658
						C89.172,63.147,89.646,62.472,89.177,62.223z"/>
					<path style="fill:#161616;" d="M69.959,120.634c-4.808-1.765-9.46-3.916-14.068-6.145c-4.612-2.23-9.188-4.538-13.872-6.614
						c-1.623-0.719-3.259-1.409-4.911-2.058c3.911-4.101,8.751-7.473,14.229-9.077c2.846-0.833,5.767-1.063,8.718-1.15
						c2.987-0.088,5.971-0.19,8.948-0.468c3.345-0.313,6.674-0.823,9.935-1.639c0.512-0.128,0.376-0.941-0.138-0.813
						c-5.906,1.477-11.98,1.914-18.047,2.081c-2.977,0.082-5.948,0.218-8.843,0.978c-2.781,0.73-5.432,1.9-7.883,3.399
						c-2.788,1.705-5.315,3.801-7.561,6.173c-0.065,0.069-0.101,0.145-0.114,0.223c-0.8-0.307-1.603-0.605-2.41-0.891
						c-0.5-0.177-0.782,0.598-0.281,0.775c4.827,1.707,9.494,3.825,14.105,6.04c4.618,2.219,9.191,4.535,13.862,6.643
						c2.646,1.194,5.324,2.317,8.05,3.318C70.177,121.592,70.458,120.817,69.959,120.634z"/>
					<path style="fill:#161616;" d="M61.511,136.75c0.695-3.351,2.523-6.326,3.421-9.614c0.84,0.359,1.691,0.692,2.557,0.988
						c0.502,0.171,0.784-0.603,0.281-0.775c-4.96-1.694-9.479-4.497-14.156-6.821c-4.79-2.379-9.674-4.568-14.637-6.559
						c-2.802-1.124-5.63-2.185-8.48-3.183c-0.501-0.175-0.782,0.599-0.281,0.775c1.072,0.376,2.141,0.762,3.206,1.156
						c-1.613,2.815-3.189,5.65-4.725,8.507c-0.248,0.462,0.427,0.936,0.678,0.468c1.569-2.918,3.179-5.813,4.828-8.687
						c1.271,0.475,2.536,0.964,3.797,1.464c-1.421,2.93-2.926,5.819-4.512,8.664c-0.256,0.459,0.419,0.932,0.678,0.468
						c1.616-2.898,3.149-5.842,4.597-8.827c1.31,0.526,2.614,1.067,3.913,1.62c-1.646,3.105-3.141,6.288-4.47,9.542
						c-0.201,0.492,0.574,0.771,0.775,0.281c1.323-3.239,2.807-6.411,4.451-9.501c0.568,0.245,1.136,0.492,1.702,0.742
						c0.573,0.253,1.143,0.51,1.713,0.769c-1.316,3.223-2.728,6.405-4.235,9.543c-0.23,0.478,0.547,0.755,0.775,0.281
						c1.497-3.118,2.9-6.279,4.209-9.481c1.349,0.622,2.689,1.261,4.023,1.912c-1.153,3.281-3.42,6.041-4.501,9.355
						c-0.164,0.504,0.61,0.786,0.775,0.281c1.071-3.285,3.309-6.026,4.471-9.271c1.034,0.509,2.064,1.028,3.091,1.551
						c-1.013,3.28-2.244,6.489-3.687,9.604c-0.223,0.482,0.553,0.759,0.775,0.281c1.429-3.084,2.649-6.26,3.656-9.506
						c1.109,0.568,2.216,1.143,3.32,1.724c0.024,0.013,0.048,0.025,0.072,0.038c-1.039,3.25-2.078,6.499-3.117,9.749
						c-0.161,0.505,0.613,0.787,0.775,0.281c1.028-3.214,2.056-6.429,3.083-9.643c1.265,0.657,2.541,1.296,3.841,1.879
						c-0.91,3.38-2.767,6.429-3.481,9.872C60.583,137.195,61.405,137.264,61.511,136.75z"/>
					<path style="fill:#161616;" d="M84.099,75.739c-2.516,1.029-5.251,1.502-7.967,1.347c-2.51-0.144-4.948-0.791-7.388-1.351
						c-2.44-0.561-4.905-1.026-7.42-0.882c-2.536,0.145-5.023,0.878-7.304,1.983c-2.635,1.277-5.017,3.05-7.096,5.104
						c-0.374,0.37,0.157,1.001,0.535,0.627c3.64-3.596,8.328-6.417,13.513-6.865c5.042-0.436,9.775,1.811,14.742,2.183
						c2.976,0.223,5.973-0.27,8.734-1.398C84.94,76.285,84.589,75.539,84.099,75.739z"/>
					<path style="fill:#161616;" d="M70.512,91.249c3.501-0.265,7.037-1.009,10.068-2.855c0.448-0.273,0.104-1.022-0.349-0.746
						c-5.548,3.379-12.269,2.876-18.497,2.921c-3.113,0.022-6.236,0.198-9.258,0.997c-3.043,0.805-5.925,2.121-8.611,3.751
						c-3.069,1.863-5.89,4.101-8.553,6.502c-0.393,0.354,0.14,0.983,0.535,0.627c4.682-4.222,9.979-8.099,16.106-9.884
						C58.017,90.796,64.31,91.719,70.512,91.249z"/>
				</g>
			</g>
			<g>
				<path style="fill:#FFFFFF;" d="M732.978,115.057l-19.538-4.62l-4.737-25.679c-0.064-0.348-0.365-0.603-0.72-0.608
					c-0.004,0-0.008,0-0.011,0c-0.349,0-0.652,0.244-0.726,0.587l-5.486,25.432l-19.592,4.216c-0.34,0.073-0.583,0.372-0.587,0.72
					c-0.003,0.348,0.235,0.651,0.573,0.73l20.097,4.714l4.99,26.695c0.065,0.349,0.368,0.603,0.724,0.607c0.002,0,0.005,0,0.007,0
					c0.352,0,0.656-0.248,0.728-0.593l5.495-26.68l18.769-4.071c0.339-0.073,0.582-0.372,0.586-0.719
					C733.553,115.44,733.316,115.136,732.978,115.057z"/>
				
					<polygon style="fill:none;stroke:#161616;stroke-width:1.4862;stroke-linecap:round;stroke-linejoin:round;stroke-miterlimit:10;" points="
					702.385,110.794 707.972,84.893 712.797,111.048 732.807,115.78 713.565,119.953 707.972,147.107 702.893,119.936 
					682.325,115.111 				"/>
			</g>
			<g>
				<path style="fill:#FFFFFF;" d="M118.247,314.049l-19.538-4.62l-4.737-25.679c-0.064-0.348-0.365-0.603-0.72-0.608
					c-0.004,0-0.007,0-0.011,0c-0.349,0-0.652,0.244-0.726,0.587l-5.486,25.432l-19.592,4.216c-0.34,0.073-0.584,0.372-0.587,0.72
					c-0.003,0.348,0.235,0.651,0.573,0.73l20.097,4.714l4.99,26.695c0.065,0.349,0.368,0.603,0.724,0.607c0.002,0,0.005,0,0.007,0
					c0.352,0,0.656-0.248,0.728-0.593l5.495-26.68l18.77-4.071c0.339-0.074,0.582-0.372,0.586-0.719
					C118.822,314.432,118.585,314.129,118.247,314.049z"/>
				
					<polygon style="fill:none;stroke:#161616;stroke-width:1.4862;stroke-linecap:round;stroke-linejoin:round;stroke-miterlimit:10;" points="
					87.654,309.787 93.241,283.885 98.066,310.041 118.076,314.773 98.834,318.946 93.241,346.1 88.162,318.928 67.594,314.104 				
					"/>
			</g>
			<g>
				<path style="fill:#FFFFFF;" d="M580.879,405.067c-0.07-0.233-0.255-0.437-0.556-0.472c-3.172-0.361-6.083-2.09-8.115-4.523
					c-2.21-2.646-3.306-6.094-3.431-9.507c-0.002-0.066-0.014-0.126-0.032-0.181c0.156-0.697-0.962-0.973-1.211-0.252
					c-1.212,3.513-3.667,6.767-7.145,8.274c-3.319,1.438-7.517,1.007-10.173-1.551c-0.258-0.249-0.577-0.207-0.797-0.037
					c-0.085-0.079-0.171-0.156-0.256-0.235c-0.044,0.025-0.086,0.054-0.123,0.088c-0.404,0.09-0.72,0.643-0.353,1.059
					c2.148,2.434,3.185,5.857,2.624,9.072c-0.542,3.103-2.425,5.871-5.102,7.524c-0.684,0.422-0.087,1.405,0.623,1.065
					c3.118-1.492,7.008-0.628,9.571,1.577c2.756,2.371,4.131,5.97,4.421,9.528c0.013,0.164,0.078,0.294,0.172,0.39
					c-0.005,0.048-0.011,0.096-0.015,0.145c-0.068,0.791,1.166,0.787,1.234,0c0.238-2.759,1.894-5.329,4.308-6.688
					c2.645-1.489,6.006-1.338,8.577,0.226c0.627,0.382,1.185-0.456,0.748-0.969c-1.947-2.285-2.538-5.594-1.471-8.405
					c1.008-2.652,3.44-4.612,6.192-5.188C581.06,405.905,581.107,405.39,580.879,405.067z"/>
				<path style="fill:#161616;" d="M580.879,405.067c-0.07-0.233-0.255-0.437-0.556-0.472c-3.172-0.361-6.083-2.09-8.115-4.523
					c-2.21-2.646-3.306-6.094-3.431-9.507c-0.002-0.066-0.014-0.126-0.032-0.181c0.156-0.697-0.962-0.973-1.211-0.252
					c-1.212,3.513-3.667,6.767-7.145,8.274c-3.319,1.438-7.517,1.007-10.173-1.551c-0.258-0.249-0.577-0.207-0.797-0.037
					c-0.085-0.079-0.171-0.156-0.256-0.235c-0.044,0.025-0.086,0.054-0.123,0.088c-0.404,0.09-0.72,0.643-0.353,1.059
					c2.148,2.434,3.185,5.857,2.624,9.072c-0.542,3.103-2.425,5.871-5.102,7.524c-0.684,0.422-0.087,1.405,0.623,1.065
					c3.118-1.492,7.008-0.628,9.571,1.577c2.756,2.371,4.131,5.97,4.421,9.528c0.013,0.164,0.078,0.294,0.172,0.39
					c-0.005,0.048-0.011,0.096-0.015,0.145c-0.068,0.791,1.166,0.787,1.234,0c0.238-2.759,1.894-5.329,4.308-6.688
					c2.645-1.489,6.006-1.338,8.577,0.226c0.627,0.382,1.185-0.456,0.748-0.969c-1.947-2.285-2.538-5.594-1.471-8.405
					c1.008-2.652,3.44-4.612,6.192-5.188C581.06,405.905,581.107,405.39,580.879,405.067z M573.186,410.868
					c-0.952,2.517-0.685,5.351,0.524,7.712c-2.556-0.84-5.441-0.637-7.812,0.698c-1.912,1.077-3.371,2.798-4.195,4.794
					c-0.668-3.157-2.168-6.178-4.716-8.214c-2.194-1.753-5.034-2.664-7.785-2.373c1.734-1.78,2.94-4.071,3.328-6.54
					c0.428-2.729-0.104-5.509-1.425-7.888c2.077,1.212,4.573,1.614,6.98,1.266c3.247-0.47,6.064-2.419,8.042-4.982
					c0.625-0.81,1.161-1.676,1.621-2.582c0.456,2.987,1.63,5.848,3.586,8.186c1.819,2.176,4.272,3.758,6.987,4.499
					C575.989,406.489,574.098,408.455,573.186,410.868z"/>
			</g>
			<g>
				<path style="fill:#FFFFFF;" d="M119.46,411.144c-0.07-0.233-0.255-0.437-0.556-0.472c-3.173-0.361-6.083-2.09-8.115-4.523
					c-2.21-2.646-3.306-6.094-3.431-9.507c-0.002-0.066-0.014-0.126-0.032-0.181c0.156-0.697-0.962-0.973-1.211-0.252
					c-1.212,3.513-3.667,6.767-7.145,8.274c-3.319,1.438-7.517,1.007-10.173-1.551c-0.258-0.249-0.577-0.207-0.797-0.037
					c-0.085-0.079-0.171-0.156-0.256-0.235c-0.044,0.025-0.086,0.054-0.123,0.088c-0.403,0.09-0.72,0.643-0.353,1.059
					c2.148,2.434,3.185,5.857,2.624,9.072c-0.542,3.103-2.425,5.871-5.102,7.524c-0.684,0.422-0.087,1.405,0.623,1.065
					c3.118-1.492,7.008-0.628,9.571,1.577c2.756,2.371,4.132,5.97,4.421,9.528c0.013,0.164,0.078,0.294,0.172,0.39
					c-0.005,0.048-0.01,0.096-0.015,0.145c-0.068,0.791,1.166,0.786,1.234,0c0.238-2.759,1.894-5.329,4.308-6.688
					c2.645-1.489,6.006-1.338,8.577,0.226c0.627,0.382,1.185-0.456,0.748-0.969c-1.947-2.285-2.538-5.594-1.471-8.405
					c1.008-2.652,3.44-4.612,6.192-5.188C119.641,411.983,119.688,411.467,119.46,411.144z"/>
				<path style="fill:#161616;" d="M119.46,411.144c-0.07-0.233-0.255-0.437-0.556-0.472c-3.173-0.361-6.083-2.09-8.115-4.523
					c-2.21-2.646-3.306-6.094-3.431-9.507c-0.002-0.066-0.014-0.126-0.032-0.181c0.156-0.697-0.962-0.973-1.211-0.252
					c-1.212,3.513-3.667,6.767-7.145,8.274c-3.319,1.438-7.517,1.007-10.173-1.551c-0.258-0.249-0.577-0.207-0.797-0.037
					c-0.085-0.079-0.171-0.156-0.256-0.235c-0.044,0.025-0.086,0.054-0.123,0.088c-0.403,0.09-0.72,0.643-0.353,1.059
					c2.148,2.434,3.185,5.857,2.624,9.072c-0.542,3.103-2.425,5.871-5.102,7.524c-0.684,0.422-0.087,1.405,0.623,1.065
					c3.118-1.492,7.008-0.628,9.571,1.577c2.756,2.371,4.132,5.97,4.421,9.528c0.013,0.164,0.078,0.294,0.172,0.39
					c-0.005,0.048-0.01,0.096-0.015,0.145c-0.068,0.791,1.166,0.786,1.234,0c0.238-2.759,1.894-5.329,4.308-6.688
					c2.645-1.489,6.006-1.338,8.577,0.226c0.627,0.382,1.185-0.456,0.748-0.969c-1.947-2.285-2.538-5.594-1.471-8.405
					c1.008-2.652,3.44-4.612,6.192-5.188C119.641,411.983,119.688,411.467,119.46,411.144z M111.767,416.945
					c-0.952,2.517-0.685,5.351,0.524,7.712c-2.556-0.84-5.441-0.637-7.812,0.698c-1.912,1.077-3.371,2.798-4.195,4.794
					c-0.668-3.157-2.168-6.178-4.716-8.214c-2.194-1.753-5.034-2.664-7.785-2.373c1.734-1.78,2.941-4.071,3.328-6.54
					c0.428-2.729-0.104-5.509-1.425-7.888c2.077,1.212,4.573,1.614,6.98,1.266c3.247-0.47,6.064-2.419,8.043-4.982
					c0.625-0.81,1.161-1.676,1.621-2.582c0.456,2.987,1.63,5.847,3.586,8.186c1.819,2.176,4.272,3.758,6.987,4.499
					C114.57,412.566,112.679,414.532,111.767,416.945z"/>
			</g>
		</g>
	</g>
	<g>
		<defs>
			<rect id="SVGID_00000062175102537422731030000011549046470759101598_" width="750" height="500"/>
		</defs>
		<clipPath id="SVGID_00000035510653459806203030000000374290852950786234_">
			<use xlink:href="#SVGID_00000062175102537422731030000011549046470759101598_"  style="overflow:visible;"/>
		</clipPath>
		<g style="clip-path:url(#SVGID_00000035510653459806203030000000374290852950786234_);">
			<path style="fill:#F6C6D7;" d="M725.036,234.889c-4.852-21.397-3.456-44.81-11.557-65.396
				c-6.45-16.391-23.352-33.619-41.986-22.862c-8.215,4.743-13.307,13.509-17.201,21.845c-1.114,2.384-2.215,4.848-3.406,7.267
				c-2.951,2.422-6.211,4.54-9.565,6.549c-8.193,4.91-16.49,9.452-24.031,15.369c-14.386,11.288-25.788,27.02-26.301,45.885
				c-0.229,8.427,1.777,17.273,6.519,24.33c5.038,7.499,12.523,12.293,20.655,15.89c8.223,3.638,17.394,6.298,24.475,12.051
				c7.353,5.973,11.166,15.009,16.575,22.557c10.365,14.464,27.989,22.004,45.476,16.32c16.76-5.448,26.375-21.646,28.932-38.347
				C736.838,275.319,729.626,255.129,725.036,234.889z"/>
			<path style="fill:#DFFED8;" d="M191.678,70.44c-6.042-17.538-25.983-22.432-41.348-28.99
				c-9.899-4.226-19.798-8.451-29.698-12.677c-9-3.842-18.041-8.322-27.607-10.578c-15.939-3.76-31.427,0.647-43.659,11.361
				c-14.02,12.28-21.524,30.269-22.669,48.632c-0.814,13.046,1.212,25.923,4.49,38.533c-0.125,0.517-0.164,1.098-0.087,1.749
				c1.666,14,4.417,30.468,16.99,39.021c14.904,10.138,33.34,1.489,45.027-9.442c12.461-11.654,21.16-27.219,38.981-31.146
				c15.363-3.385,32.53-0.501,46.527-9.04C191.188,100.198,196.454,84.303,191.678,70.44z"/>
			<path style="fill:#94BDFF;" d="M98.735,217.361c-0.862-14.574-11.844-27.359-25.967-30.826
				c-11.571-2.84-23.908,1.114-31.074,9.862c-10.88,9.049-12.296,24.851-4.201,36.547c8.275,11.957,23.14,18.312,37.496,15.539
				C89.466,245.687,99.602,232.001,98.735,217.361z"/>
			<path style="fill:#B6E1F5;" d="M687.894,390.058c-7.319-15.203-23.677-28.031-41.36-25.379
				c-9.124,1.368-15.804,7.47-19.722,15.619c-2.401,4.994-4.167,11.882-7.666,16.803c-2.609,2.176-5.397,4.138-8.352,5.831
				c-0.074,0.015-0.144,0.036-0.218,0.05c-1.217,0.232-2.097,0.78-2.685,1.501c-3.703,1.85-7.621,3.315-11.705,4.337
				c-19.442,4.866-39.447-3.447-58.94,1.597c-15.93,4.122-27.658,17.905-26.185,34.839c1.414,16.259,14.165,27.204,29.54,30.48
				c18.983,4.045,36.991-2.625,55.594-5.47c19.243-2.943,37.893,5.659,56.915-0.176c15.68-4.81,29.378-16.273,35.99-31.382
				C695.862,423.257,695.184,405.201,687.894,390.058z"/>
			<path style="fill:#F6C6D7;" d="M198.506,391.044c-9.644-19.907-28.777-30.074-50.369-30.676
				c-12.844-0.358-26.003,1.905-38.729-0.54c-11.268-2.165-20.482-8.469-28.553-16.387C64.36,327.259,52.21,306.358,30.42,296.399
				c-11.556-5.282-24.5-6.402-36.185-0.837c-10.685,5.089-18.549,14.934-22.862,25.775c-5.354,13.459-5.635,28.605-3.781,42.803
				c0.456,3.491,1.09,6.918,1.919,10.27c-1.26,1.079-1.963,2.762-1.365,4.856c6.638,23.231,15.704,46.992,33.644,63.95
				c8.033,7.594,17.608,13.678,28.172,17.049c12.253,3.909,24.545,2.504,37.115,1.518c6.78-0.532,13.72-0.853,20.347,0.961
				c5.792,1.586,10.984,4.658,16.204,7.535c10.749,5.925,21.09,9.899,33.568,8.124c20.879-2.971,42.253-14.029,55.25-30.839
				C205.194,431.074,207.614,409.844,198.506,391.044z"/>
			<path style="fill:#B6E1F5;" d="M257.256,29.351c-6.622-5.157-17.086-5.429-23.226,0.339c-6.159,2.306-10.731,8.953-9.462,16.189
				c0.822,4.692,3.756,9.082,7.725,11.817c0.69,0.937,1.474,1.821,2.366,2.627c7.82,7.07,20.474,4.675,26.796-3.153
				C268.365,48.612,265.63,35.873,257.256,29.351z"/>
			<path style="fill:#94BDFF;" d="M631.019,315.725c-0.963-3.055-2.837-5.242-5.193-6.826c-0.347-0.589-0.832-1.135-1.476-1.604
				c-11.779-8.58-29.43-2.884-34.467,10.57c-1.616,4.315-2.248,8.831-4.577,12.878c-2.45,4.259-5.979,7.34-10.051,9.992
				c-6.994,4.553-14.461,9.22-16.709,17.847c-2.014,7.73,2.234,15.128,9.357,18.25c8.062,3.533,16.605,0.793,24.071-2.921
				c14.23-7.079,27.286-18.642,34.268-33.091C629.654,333.755,633.502,323.602,631.019,315.725z"/>
			<path style="fill:#DFFED8;" d="M729.431,59.048c-0.517-31.181-8.019-66.233-32.572-87.631
				c-21.763-18.966-57.857-22.271-76.086,1.889c-13.582,15.375-12.158,45.163-4.419,62.521
				c7.288,16.346,20.099,30.413,30.788,44.599c8.977,11.915,18.263,29.454,33.551,34.052c13.266,3.99,27.731-2.072,36.539-12.211
				C727.457,90.494,729.68,74.094,729.431,59.048z"/>
		</g>
	</g>
</g>
</svg>
