<?xml version="1.0" encoding="UTF-8"?>
<svg id="Layer_1" data-name="Layer 1" xmlns="http://www.w3.org/2000/svg" viewBox="0 0 98.98 102.88">
  <defs>
    <style>
      .cls-1 {
        stroke-width: 0px;
      }
    </style>
  </defs>
  <path class="cls-1" d="M48.97,59.4c2.1,5.3,6.2,10.3,12.5,13.1-8.6-.1-18.2-4.8-21.7-13.1h9.2ZM48.37,50.6h7.8l-6.8,6.1h-7.8l6.8-6.1ZM67.27,46.3l-13-8.7c-5.8-3.8-10.7-9.5-10.7-18.2C43.57,6.9,54.37.2,65.07.2c11.9,0,19.5,6.4,22.1,13.8l-7.5,6.6c-1.9-7.3-7.1-11.8-14.9-11.8-6.7,0-11.9,4.1-11.9,10.7,0,5.5,3.5,9.7,9,13.4l12.5,8.2c5.3,3.5,8.8,6.8,8.8,11.9s-4,8-9.2,8h-1.1c.6-1.2,1-2.7,1-4.5,0-4.4-2.3-7.4-6.6-10.2ZM85.87,53c0-5.5-3.5-9.8-9.1-13.5l-12.7-8.3c-5-3.3-8.5-6.6-8.5-11.7s4-8,9.2-8c.3,0,.7,0,1,.1-.6,1.2-.9,2.6-.9,4.4,0,4.4,2.3,7.4,6.9,10.4l12.6,8.4c6.1,4.1,10.8,9.6,10.8,18.3,0,11.5-8.8,19.2-21.5,19.2-12,0-19.5-6.4-22.1-13.8l7.5-6.7c1.8,7.4,7,11.9,14.9,11.9,6.7,0,11.9-4.1,11.9-10.7ZM89.77,13.1c-2.2-5.3-6.3-10.2-12.5-13.1,8.5.1,18.2,4.9,21.7,13.1h-9.2ZM90.37,21.9h-7.8l6.8-6.1h7.8l-6.8,6.1Z"/>
  <path class="cls-1" d="M9.3,94.88h45.6l-9,8H0v-61.4h9.3v53.4ZM11.2,30.77h7.8l-8.9,8H2.2l9-8ZM12,90.58v-49.7l9.3-8.4v49.6l-9.3,8.5ZM47.8,73.48h9.3v18.7H14.3l8.8-8h24.7v-10.7ZM31.7,51.38c2.2-.2,3.8-1.2,3.8-4v-2.2h-4.7v-9h9.6v10.9c0,6.5-3,7.9-7.7,8.3l-1-4ZM36.9,30.27h8.1l-4.1,3.7h-8.2l4.2-3.7ZM38,81.48l7.1-6.3v6.3h-7.1ZM42.4,50.18c.1-.8.2-2,.2-2.8v-11.8l4.5-4v11.1c0,2.7-1.2,4.5-2.6,5.7l-2.1,1.8Z"/>
</svg>